<mxfile host="app.diagrams.net" modified="2023-03-16T07:23:38.190Z" agent="5.0 (Windows NT 10.0; Win64; x64) AppleWebKit/537.36 (KHTML, like Gecko) Chrome/108.0.0.0 Safari/537.36" etag="3CdWM_9CDJcIuSxHHF7X" version="21.0.6" type="github" pages="2">
  <diagram id="yPxyJZ8AM_hMuL3Unpa9" name="Branch Org Map">
    <mxGraphModel dx="2074" dy="2168" grid="1" gridSize="10" guides="1" tooltips="1" connect="1" arrows="1" fold="1" page="1" pageScale="1" pageWidth="850" pageHeight="1100" math="0" shadow="0">
      <root>
        <mxCell id="0" />
        <mxCell id="1" parent="0" />
        <mxCell id="3" value="" style="endArrow=none;dashed=1;html=1;fillColor=#dae8fc;strokeColor=#6c8ebf;" parent="1" source="12" target="7" edge="1">
          <mxGeometry width="50" height="50" relative="1" as="geometry">
            <mxPoint x="40" y="70" as="sourcePoint" />
            <mxPoint x="720" y="70" as="targetPoint" />
          </mxGeometry>
        </mxCell>
        <mxCell id="22" style="edgeStyle=orthogonalEdgeStyle;rounded=1;orthogonalLoop=1;jettySize=auto;html=1;dashed=1;endArrow=none;endFill=0;fillColor=#d5e8d4;strokeColor=#82b366;" parent="1" source="4" target="21" edge="1">
          <mxGeometry relative="1" as="geometry">
            <Array as="points">
              <mxPoint x="40" y="180" />
            </Array>
          </mxGeometry>
        </mxCell>
        <mxCell id="4" value="1.0" style="ellipse;whiteSpace=wrap;html=1;aspect=fixed;fillColor=#dae8fc;strokeColor=#6c8ebf;fontStyle=1;labelPosition=center;verticalLabelPosition=top;align=center;verticalAlign=bottom;fontColor=#0066CC;" parent="1" vertex="1">
          <mxGeometry x="30" y="60" width="20" height="20" as="geometry" />
        </mxCell>
        <mxCell id="7" value="Master" style="text;html=1;strokeColor=#6c8ebf;fillColor=#dae8fc;align=center;verticalAlign=middle;whiteSpace=wrap;rounded=0;" parent="1" vertex="1">
          <mxGeometry x="820" y="60" width="90" height="20" as="geometry" />
        </mxCell>
        <mxCell id="8" value="" style="endArrow=none;dashed=1;html=1;fillColor=#f8cecc;strokeColor=#b85450;entryX=0;entryY=0.5;entryDx=0;entryDy=0;endFill=0;" parent="1" source="9" target="12" edge="1">
          <mxGeometry width="50" height="50" relative="1" as="geometry">
            <mxPoint x="40" y="150" as="sourcePoint" />
            <mxPoint x="600" y="122" as="targetPoint" />
            <Array as="points">
              <mxPoint x="710" y="100" />
              <mxPoint x="710" y="70" />
            </Array>
          </mxGeometry>
        </mxCell>
        <mxCell id="93" style="edgeStyle=orthogonalEdgeStyle;rounded=1;orthogonalLoop=1;jettySize=auto;html=1;dashed=1;endArrow=none;endFill=0;fontSize=12;fontColor=#FFB570;fillColor=#d5e8d4;strokeColor=#82b366;entryX=0;entryY=0.5;entryDx=0;entryDy=0;exitX=0.5;exitY=1;exitDx=0;exitDy=0;" parent="1" source="12" target="78" edge="1">
          <mxGeometry relative="1" as="geometry">
            <Array as="points">
              <mxPoint x="730" y="180" />
            </Array>
          </mxGeometry>
        </mxCell>
        <mxCell id="9" value="" style="ellipse;whiteSpace=wrap;html=1;aspect=fixed;fillColor=#f8cecc;strokeColor=#b85450;" parent="1" vertex="1">
          <mxGeometry x="674" y="90" width="20" height="20" as="geometry" />
        </mxCell>
        <mxCell id="12" value="2.1" style="ellipse;whiteSpace=wrap;html=1;aspect=fixed;fillColor=#dae8fc;strokeColor=#6c8ebf;fontStyle=1;labelPosition=center;verticalLabelPosition=top;align=center;verticalAlign=bottom;fontColor=#0066CC;" parent="1" vertex="1">
          <mxGeometry x="720" y="60" width="20" height="20" as="geometry" />
        </mxCell>
        <mxCell id="13" value="" style="endArrow=none;dashed=1;html=1;fillColor=#dae8fc;strokeColor=#6c8ebf;" parent="1" source="6" target="12" edge="1">
          <mxGeometry width="50" height="50" relative="1" as="geometry">
            <mxPoint x="50" y="70" as="sourcePoint" />
            <mxPoint x="700" y="70" as="targetPoint" />
          </mxGeometry>
        </mxCell>
        <mxCell id="19" style="edgeStyle=orthogonalEdgeStyle;rounded=1;orthogonalLoop=1;jettySize=auto;html=1;fillColor=#f8cecc;strokeColor=#b85450;dashed=1;endArrow=none;endFill=0;" parent="1" source="6" target="9" edge="1">
          <mxGeometry relative="1" as="geometry">
            <Array as="points">
              <mxPoint x="650" y="100" />
            </Array>
          </mxGeometry>
        </mxCell>
        <mxCell id="20" value="Hotfix" style="text;html=1;strokeColor=#b85450;fillColor=#f8cecc;align=center;verticalAlign=middle;whiteSpace=wrap;rounded=0;" parent="1" vertex="1">
          <mxGeometry x="820" y="90" width="90" height="20" as="geometry" />
        </mxCell>
        <mxCell id="23" style="edgeStyle=orthogonalEdgeStyle;rounded=1;orthogonalLoop=1;jettySize=auto;html=1;dashed=1;endArrow=none;endFill=0;fillColor=#d5e8d4;strokeColor=#82b366;" parent="1" source="78" target="24" edge="1">
          <mxGeometry relative="1" as="geometry">
            <mxPoint x="700" y="180" as="targetPoint" />
          </mxGeometry>
        </mxCell>
        <mxCell id="73" style="edgeStyle=orthogonalEdgeStyle;rounded=1;orthogonalLoop=1;jettySize=auto;html=1;dashed=1;endArrow=none;endFill=0;fontSize=10;fontColor=#FFB570;fillColor=#e1d5e7;strokeColor=#9673a6;" parent="1" source="21" target="51" edge="1">
          <mxGeometry relative="1" as="geometry">
            <Array as="points">
              <mxPoint x="90" y="190" />
            </Array>
          </mxGeometry>
        </mxCell>
        <mxCell id="172" style="edgeStyle=orthogonalEdgeStyle;rounded=1;orthogonalLoop=1;jettySize=auto;html=1;dashed=1;endArrow=none;endFill=0;fontSize=12;fontColor=#FFB570;fillColor=#e1d5e7;strokeColor=#9673a6;" parent="1" source="21" target="63" edge="1">
          <mxGeometry relative="1" as="geometry">
            <Array as="points">
              <mxPoint x="90" y="240" />
            </Array>
          </mxGeometry>
        </mxCell>
        <mxCell id="21" value="" style="ellipse;whiteSpace=wrap;html=1;aspect=fixed;fillColor=#d5e8d4;strokeColor=#82b366;" parent="1" vertex="1">
          <mxGeometry x="80" y="170" width="20" height="20" as="geometry" />
        </mxCell>
        <mxCell id="24" value="Nightly" style="text;html=1;strokeColor=#82b366;fillColor=#d5e8d4;align=center;verticalAlign=middle;whiteSpace=wrap;rounded=0;" parent="1" vertex="1">
          <mxGeometry x="820" y="170" width="90" height="20" as="geometry" />
        </mxCell>
        <mxCell id="25" value="" style="ellipse;whiteSpace=wrap;html=1;aspect=fixed;fillColor=#d5e8d4;strokeColor=#82b366;" parent="1" vertex="1">
          <mxGeometry x="166.97" y="170" width="20" height="20" as="geometry" />
        </mxCell>
        <mxCell id="26" style="edgeStyle=orthogonalEdgeStyle;rounded=1;orthogonalLoop=1;jettySize=auto;html=1;dashed=1;endArrow=none;endFill=0;fillColor=#d5e8d4;strokeColor=#82b366;" parent="1" source="21" target="25" edge="1">
          <mxGeometry relative="1" as="geometry">
            <mxPoint x="680" y="180" as="targetPoint" />
            <mxPoint x="110" y="180" as="sourcePoint" />
          </mxGeometry>
        </mxCell>
        <mxCell id="114" style="edgeStyle=orthogonalEdgeStyle;rounded=1;orthogonalLoop=1;jettySize=auto;html=1;dashed=1;endArrow=none;endFill=0;fontSize=12;fontColor=#FFB570;fillColor=#e1d5e7;strokeColor=#9673a6;entryX=0;entryY=0.5;entryDx=0;entryDy=0;" parent="1" source="27" target="65" edge="1">
          <mxGeometry relative="1" as="geometry">
            <Array as="points">
              <mxPoint x="280" y="240" />
            </Array>
          </mxGeometry>
        </mxCell>
        <mxCell id="27" value="" style="ellipse;whiteSpace=wrap;html=1;aspect=fixed;fillColor=#d5e8d4;strokeColor=#82b366;" parent="1" vertex="1">
          <mxGeometry x="269.97" y="170" width="20" height="20" as="geometry" />
        </mxCell>
        <mxCell id="28" style="edgeStyle=orthogonalEdgeStyle;rounded=1;orthogonalLoop=1;jettySize=auto;html=1;dashed=1;endArrow=none;endFill=0;fillColor=#d5e8d4;strokeColor=#82b366;" parent="1" source="25" target="27" edge="1">
          <mxGeometry relative="1" as="geometry">
            <mxPoint x="680" y="180" as="targetPoint" />
            <mxPoint x="240" y="180" as="sourcePoint" />
          </mxGeometry>
        </mxCell>
        <mxCell id="44" style="edgeStyle=orthogonalEdgeStyle;rounded=1;orthogonalLoop=1;jettySize=auto;html=1;dashed=1;endArrow=none;endFill=0;fontSize=10;fontColor=#FFB570;fillColor=#ffe6cc;strokeColor=#d79b00;" parent="1" source="29" target="39" edge="1">
          <mxGeometry relative="1" as="geometry">
            <Array as="points">
              <mxPoint x="400" y="130" />
            </Array>
          </mxGeometry>
        </mxCell>
        <mxCell id="29" value="" style="ellipse;whiteSpace=wrap;html=1;aspect=fixed;fillColor=#d5e8d4;strokeColor=#82b366;" parent="1" vertex="1">
          <mxGeometry x="389.97" y="170" width="20" height="20" as="geometry" />
        </mxCell>
        <mxCell id="30" style="edgeStyle=orthogonalEdgeStyle;rounded=1;orthogonalLoop=1;jettySize=auto;html=1;dashed=1;endArrow=none;endFill=0;fillColor=#d5e8d4;strokeColor=#82b366;" parent="1" source="27" target="29" edge="1">
          <mxGeometry relative="1" as="geometry">
            <mxPoint x="680" y="180" as="targetPoint" />
            <mxPoint x="370" y="180" as="sourcePoint" />
          </mxGeometry>
        </mxCell>
        <mxCell id="177" style="edgeStyle=orthogonalEdgeStyle;rounded=1;orthogonalLoop=1;jettySize=auto;html=1;entryX=0;entryY=0.5;entryDx=0;entryDy=0;dashed=1;fillColor=#d5e8d4;strokeColor=#82b366;endArrow=none;endFill=0;" parent="1" source="6" target="92" edge="1">
          <mxGeometry relative="1" as="geometry">
            <Array as="points">
              <mxPoint x="650" y="180" />
            </Array>
          </mxGeometry>
        </mxCell>
        <mxCell id="6" value="2.0" style="ellipse;whiteSpace=wrap;html=1;aspect=fixed;fillColor=#dae8fc;strokeColor=#6c8ebf;fontStyle=1;labelPosition=center;verticalLabelPosition=top;align=center;verticalAlign=bottom;fontColor=#0066CC;" parent="1" vertex="1">
          <mxGeometry x="640" y="60" width="20" height="20" as="geometry" />
        </mxCell>
        <mxCell id="35" value="" style="endArrow=none;dashed=1;html=1;fillColor=#dae8fc;strokeColor=#6c8ebf;" parent="1" source="4" target="6" edge="1">
          <mxGeometry width="50" height="50" relative="1" as="geometry">
            <mxPoint x="49.9999999999917" y="70" as="sourcePoint" />
            <mxPoint x="690" y="70" as="targetPoint" />
            <Array as="points" />
          </mxGeometry>
        </mxCell>
        <mxCell id="43" style="edgeStyle=orthogonalEdgeStyle;rounded=1;orthogonalLoop=1;jettySize=auto;html=1;dashed=1;endArrow=none;endFill=0;fontSize=10;fontColor=#FFB570;fillColor=#ffe6cc;strokeColor=#d79b00;" parent="1" source="36" target="6" edge="1">
          <mxGeometry relative="1" as="geometry">
            <Array as="points">
              <mxPoint x="630" y="130" />
              <mxPoint x="630" y="70" />
            </Array>
          </mxGeometry>
        </mxCell>
        <mxCell id="162" style="edgeStyle=orthogonalEdgeStyle;rounded=1;orthogonalLoop=1;jettySize=auto;html=1;dashed=1;endArrow=none;endFill=0;fontSize=12;fontColor=#FFB570;entryX=0;entryY=0.5;entryDx=0;entryDy=0;fillColor=#ffe6cc;strokeColor=#d79b00;" parent="1" source="36" target="159" edge="1">
          <mxGeometry relative="1" as="geometry">
            <Array as="points">
              <mxPoint x="530" y="150" />
            </Array>
          </mxGeometry>
        </mxCell>
        <mxCell id="36" value="RC2" style="ellipse;whiteSpace=wrap;html=1;aspect=fixed;fontSize=10;labelPosition=center;verticalLabelPosition=top;align=center;verticalAlign=bottom;fillColor=#ffe6cc;strokeColor=#d79b00;fontColor=#FFB570;" parent="1" vertex="1">
          <mxGeometry x="520" y="120" width="20" height="20" as="geometry" />
        </mxCell>
        <mxCell id="41" style="edgeStyle=orthogonalEdgeStyle;rounded=1;orthogonalLoop=1;jettySize=auto;html=1;dashed=1;endArrow=none;endFill=0;fontSize=10;fontColor=#FFB570;fillColor=#ffe6cc;strokeColor=#d79b00;" parent="1" source="39" target="36" edge="1">
          <mxGeometry relative="1" as="geometry" />
        </mxCell>
        <mxCell id="39" value="RC1" style="ellipse;whiteSpace=wrap;html=1;aspect=fixed;fontSize=10;labelPosition=center;verticalLabelPosition=top;align=center;verticalAlign=bottom;fillColor=#ffe6cc;strokeColor=#d79b00;fontColor=#FFB570;" parent="1" vertex="1">
          <mxGeometry x="414.65999999999997" y="120" width="20" height="20" as="geometry" />
        </mxCell>
        <mxCell id="42" value="Release" style="text;html=1;strokeColor=#d79b00;fillColor=#ffe6cc;align=center;verticalAlign=middle;whiteSpace=wrap;rounded=0;fontSize=12;" parent="1" vertex="1">
          <mxGeometry x="820" y="120" width="90" height="20" as="geometry" />
        </mxCell>
        <mxCell id="74" style="edgeStyle=orthogonalEdgeStyle;rounded=1;orthogonalLoop=1;jettySize=auto;html=1;dashed=1;endArrow=none;endFill=0;fontSize=10;fontColor=#FFB570;fillColor=#e1d5e7;strokeColor=#9673a6;" parent="1" source="51" target="52" edge="1">
          <mxGeometry relative="1" as="geometry" />
        </mxCell>
        <mxCell id="147" style="edgeStyle=orthogonalEdgeStyle;rounded=1;orthogonalLoop=1;jettySize=auto;html=1;dashed=1;endArrow=none;endFill=0;fontSize=12;fontColor=#FFB570;jumpStyle=arc;jumpSize=6;" parent="1" source="51" target="69" edge="1">
          <mxGeometry relative="1" as="geometry">
            <Array as="points">
              <mxPoint x="130" y="280" />
            </Array>
          </mxGeometry>
        </mxCell>
        <mxCell id="76" style="edgeStyle=orthogonalEdgeStyle;rounded=1;orthogonalLoop=1;jettySize=auto;html=1;dashed=1;endArrow=none;endFill=0;fontSize=10;fontColor=#FFB570;fillColor=#e1d5e7;strokeColor=#9673a6;entryX=0;entryY=0.5;entryDx=0;entryDy=0;" parent="1" source="52" target="27" edge="1">
          <mxGeometry relative="1" as="geometry">
            <Array as="points">
              <mxPoint x="250" y="210" />
              <mxPoint x="250" y="180" />
            </Array>
          </mxGeometry>
        </mxCell>
        <mxCell id="52" value="" style="ellipse;whiteSpace=wrap;html=1;aspect=fixed;fontSize=10;fillColor=#e1d5e7;strokeColor=#9673a6;" parent="1" vertex="1">
          <mxGeometry x="209.97" y="200" width="20" height="20" as="geometry" />
        </mxCell>
        <mxCell id="152" style="edgeStyle=orthogonalEdgeStyle;rounded=1;orthogonalLoop=1;jettySize=auto;html=1;dashed=1;endArrow=none;endFill=0;fontSize=12;fontColor=#FFB570;" parent="1" source="63" target="89" edge="1">
          <mxGeometry relative="1" as="geometry">
            <Array as="points">
              <mxPoint x="110" y="310" />
            </Array>
          </mxGeometry>
        </mxCell>
        <mxCell id="63" value="" style="ellipse;whiteSpace=wrap;html=1;aspect=fixed;fontSize=10;fillColor=#e1d5e7;strokeColor=#9673a6;" parent="1" vertex="1">
          <mxGeometry x="100" y="230" width="20" height="20" as="geometry" />
        </mxCell>
        <mxCell id="99" style="edgeStyle=orthogonalEdgeStyle;rounded=1;orthogonalLoop=1;jettySize=auto;html=1;dashed=1;endArrow=none;endFill=0;fontSize=12;fontColor=#FFB570;fillColor=#e1d5e7;strokeColor=#9673a6;" parent="1" source="65" target="71" edge="1">
          <mxGeometry relative="1" as="geometry" />
        </mxCell>
        <mxCell id="156" style="edgeStyle=orthogonalEdgeStyle;rounded=1;orthogonalLoop=1;jettySize=auto;html=1;dashed=1;endArrow=none;endFill=0;fontSize=12;fontColor=#FFB570;fillColor=#f5f5f5;strokeColor=#666666;" parent="1" source="65" target="91" edge="1">
          <mxGeometry relative="1" as="geometry">
            <Array as="points">
              <mxPoint x="300" y="310" />
            </Array>
          </mxGeometry>
        </mxCell>
        <mxCell id="65" value="" style="ellipse;whiteSpace=wrap;html=1;aspect=fixed;fontSize=10;fillColor=#e1d5e7;strokeColor=#9673a6;" parent="1" vertex="1">
          <mxGeometry x="289.97" y="230" width="20" height="20" as="geometry" />
        </mxCell>
        <mxCell id="118" style="edgeStyle=orthogonalEdgeStyle;rounded=1;orthogonalLoop=1;jettySize=auto;html=1;exitX=1;exitY=0.5;exitDx=0;exitDy=0;entryX=0;entryY=0.5;entryDx=0;entryDy=0;dashed=1;endArrow=none;endFill=0;fontSize=12;fontColor=#FFB570;" parent="1" source="69" target="88" edge="1">
          <mxGeometry relative="1" as="geometry" />
        </mxCell>
        <mxCell id="69" value="" style="ellipse;whiteSpace=wrap;html=1;aspect=fixed;fontSize=10;fontColor=#333333;fillColor=#f5f5f5;strokeColor=#666666;" parent="1" vertex="1">
          <mxGeometry x="139.97" y="270" width="20" height="20" as="geometry" />
        </mxCell>
        <mxCell id="100" style="edgeStyle=orthogonalEdgeStyle;rounded=1;orthogonalLoop=1;jettySize=auto;html=1;dashed=1;endArrow=none;endFill=0;fontSize=12;fontColor=#FFB570;fillColor=#e1d5e7;strokeColor=#9673a6;entryX=0;entryY=0.5;entryDx=0;entryDy=0;" parent="1" source="71" target="29" edge="1">
          <mxGeometry relative="1" as="geometry">
            <mxPoint x="400" y="190" as="targetPoint" />
            <Array as="points">
              <mxPoint x="380" y="240" />
              <mxPoint x="380" y="180" />
            </Array>
          </mxGeometry>
        </mxCell>
        <mxCell id="71" value="" style="ellipse;whiteSpace=wrap;html=1;aspect=fixed;fontSize=10;fillColor=#e1d5e7;strokeColor=#9673a6;" parent="1" vertex="1">
          <mxGeometry x="345.97" y="230" width="20" height="20" as="geometry" />
        </mxCell>
        <mxCell id="82" style="edgeStyle=orthogonalEdgeStyle;rounded=1;orthogonalLoop=1;jettySize=auto;html=1;dashed=1;endArrow=none;endFill=0;fillColor=#d5e8d4;strokeColor=#82b366;" parent="1" source="29" target="92" edge="1">
          <mxGeometry relative="1" as="geometry">
            <mxPoint x="500" y="160" as="targetPoint" />
            <mxPoint x="460" y="160" as="sourcePoint" />
          </mxGeometry>
        </mxCell>
        <mxCell id="85" value="Feature team 1" style="text;html=1;strokeColor=#9673a6;fillColor=#e1d5e7;align=center;verticalAlign=middle;whiteSpace=wrap;rounded=0;" parent="1" vertex="1">
          <mxGeometry x="820" y="200" width="90" height="20" as="geometry" />
        </mxCell>
        <mxCell id="86" value="Feature team 2" style="text;html=1;strokeColor=#9673a6;fillColor=#e1d5e7;align=center;verticalAlign=middle;whiteSpace=wrap;rounded=0;" parent="1" vertex="1">
          <mxGeometry x="820" y="230" width="90" height="20" as="geometry" />
        </mxCell>
        <mxCell id="151" style="edgeStyle=orthogonalEdgeStyle;rounded=1;orthogonalLoop=1;jettySize=auto;html=1;dashed=1;endArrow=none;endFill=0;fontSize=12;fontColor=#FFB570;jumpStyle=arc;entryX=0;entryY=0.5;entryDx=0;entryDy=0;" parent="1" source="88" target="52" edge="1">
          <mxGeometry relative="1" as="geometry">
            <Array as="points">
              <mxPoint x="200" y="280" />
              <mxPoint x="200" y="210" />
            </Array>
          </mxGeometry>
        </mxCell>
        <mxCell id="88" value="" style="ellipse;whiteSpace=wrap;html=1;aspect=fixed;fontSize=10;fontColor=#333333;fillColor=#f5f5f5;strokeColor=#666666;" parent="1" vertex="1">
          <mxGeometry x="170.97" y="270" width="20" height="20" as="geometry" />
        </mxCell>
        <mxCell id="153" style="edgeStyle=orthogonalEdgeStyle;rounded=1;orthogonalLoop=1;jettySize=auto;html=1;dashed=1;endArrow=none;endFill=0;fontSize=12;fontColor=#FFB570;" parent="1" source="89" target="90" edge="1">
          <mxGeometry relative="1" as="geometry" />
        </mxCell>
        <mxCell id="89" value="" style="ellipse;whiteSpace=wrap;html=1;aspect=fixed;fontSize=10;fontColor=#333333;fillColor=#f5f5f5;strokeColor=#666666;" parent="1" vertex="1">
          <mxGeometry x="179.97" y="300" width="20" height="20" as="geometry" />
        </mxCell>
        <mxCell id="154" style="edgeStyle=orthogonalEdgeStyle;rounded=1;orthogonalLoop=1;jettySize=auto;html=1;dashed=1;endArrow=none;endFill=0;fontSize=12;fontColor=#FFB570;" parent="1" source="90" target="91" edge="1">
          <mxGeometry relative="1" as="geometry" />
        </mxCell>
        <mxCell id="90" value="" style="ellipse;whiteSpace=wrap;html=1;aspect=fixed;fontSize=10;fontColor=#333333;fillColor=#f5f5f5;strokeColor=#666666;" parent="1" vertex="1">
          <mxGeometry x="240.00000000000003" y="300" width="20" height="20" as="geometry" />
        </mxCell>
        <mxCell id="157" style="edgeStyle=orthogonalEdgeStyle;rounded=1;orthogonalLoop=1;jettySize=auto;html=1;dashed=1;endArrow=none;endFill=0;fontSize=12;fontColor=#FFB570;entryX=0;entryY=0.5;entryDx=0;entryDy=0;" parent="1" source="91" target="71" edge="1">
          <mxGeometry relative="1" as="geometry">
            <Array as="points">
              <mxPoint x="340" y="310" />
              <mxPoint x="340" y="240" />
            </Array>
          </mxGeometry>
        </mxCell>
        <mxCell id="91" value="" style="ellipse;whiteSpace=wrap;html=1;aspect=fixed;fontSize=10;fontColor=#333333;fillColor=#f5f5f5;strokeColor=#666666;" parent="1" vertex="1">
          <mxGeometry x="312" y="300" width="20" height="20" as="geometry" />
        </mxCell>
        <mxCell id="164" style="edgeStyle=orthogonalEdgeStyle;rounded=1;orthogonalLoop=1;jettySize=auto;html=1;dashed=1;endArrow=none;endFill=0;fontSize=12;fontColor=#FFB570;fillColor=#ffe6cc;strokeColor=#d79b00;" parent="1" source="95" target="103" edge="1">
          <mxGeometry relative="1" as="geometry" />
        </mxCell>
        <mxCell id="95" value="" style="ellipse;whiteSpace=wrap;html=1;aspect=fixed;fontSize=10;fillColor=#ffe6cc;strokeColor=#d79b00;" parent="1" vertex="1">
          <mxGeometry x="434.66" y="140" width="20" height="20" as="geometry" />
        </mxCell>
        <mxCell id="102" value="Development" style="text;html=1;strokeColor=#666666;fillColor=#f5f5f5;align=center;verticalAlign=middle;whiteSpace=wrap;rounded=0;fontColor=#333333;" parent="1" vertex="1">
          <mxGeometry x="820" y="290" width="90" height="20" as="geometry" />
        </mxCell>
        <mxCell id="108" style="edgeStyle=orthogonalEdgeStyle;rounded=1;orthogonalLoop=1;jettySize=auto;html=1;dashed=1;endArrow=none;endFill=0;fontSize=12;fontColor=#FFB570;fillColor=#ffe6cc;strokeColor=#d79b00;entryX=0;entryY=0.5;entryDx=0;entryDy=0;" parent="1" source="103" target="36" edge="1">
          <mxGeometry relative="1" as="geometry">
            <mxPoint x="490" y="100" as="targetPoint" />
            <Array as="points">
              <mxPoint x="510" y="150" />
              <mxPoint x="510" y="130" />
            </Array>
          </mxGeometry>
        </mxCell>
        <mxCell id="103" value="" style="ellipse;whiteSpace=wrap;html=1;aspect=fixed;fontSize=10;fillColor=#ffe6cc;strokeColor=#d79b00;" parent="1" vertex="1">
          <mxGeometry x="490" y="140" width="20" height="20" as="geometry" />
        </mxCell>
        <mxCell id="107" style="edgeStyle=orthogonalEdgeStyle;rounded=1;orthogonalLoop=1;jettySize=auto;html=1;dashed=1;endArrow=none;endFill=0;fontSize=12;fontColor=#FFB570;fillColor=#ffe6cc;strokeColor=#d79b00;" parent="1" source="39" target="95" edge="1">
          <mxGeometry relative="1" as="geometry">
            <mxPoint x="490" y="130" as="sourcePoint" />
            <mxPoint x="550" y="250" as="targetPoint" />
            <Array as="points">
              <mxPoint x="425" y="150" />
            </Array>
          </mxGeometry>
        </mxCell>
        <mxCell id="166" style="edgeStyle=orthogonalEdgeStyle;rounded=1;orthogonalLoop=1;jettySize=auto;html=1;dashed=1;endArrow=none;endFill=0;fontSize=12;fontColor=#FFB570;fillColor=#e1d5e7;strokeColor=#9673a6;" parent="1" source="92" target="165" edge="1">
          <mxGeometry relative="1" as="geometry">
            <Array as="points">
              <mxPoint x="675" y="210" />
            </Array>
          </mxGeometry>
        </mxCell>
        <mxCell id="169" style="edgeStyle=orthogonalEdgeStyle;rounded=1;orthogonalLoop=1;jettySize=auto;html=1;dashed=1;endArrow=none;endFill=0;fontSize=12;fontColor=#FFB570;fillColor=#e1d5e7;strokeColor=#9673a6;" parent="1" source="92" target="168" edge="1">
          <mxGeometry relative="1" as="geometry">
            <Array as="points">
              <mxPoint x="675" y="240" />
            </Array>
          </mxGeometry>
        </mxCell>
        <mxCell id="92" value="" style="ellipse;whiteSpace=wrap;html=1;aspect=fixed;fontSize=10;fillColor=#d5e8d4;strokeColor=#82b366;" parent="1" vertex="1">
          <mxGeometry x="664.97" y="170" width="20" height="20" as="geometry" />
        </mxCell>
        <mxCell id="116" style="edgeStyle=orthogonalEdgeStyle;rounded=1;orthogonalLoop=1;jettySize=auto;html=1;dashed=1;endArrow=none;endFill=0;fontSize=12;fontColor=#FFB570;fillColor=#e1d5e7;strokeColor=#9673a6;" parent="1" source="63" target="65" edge="1">
          <mxGeometry relative="1" as="geometry">
            <mxPoint x="159.97" y="260" as="sourcePoint" />
            <mxPoint x="209.97" y="260" as="targetPoint" />
          </mxGeometry>
        </mxCell>
        <mxCell id="125" value="Release Fixes" style="text;html=1;strokeColor=#d79b00;fillColor=#ffe6cc;align=center;verticalAlign=middle;whiteSpace=wrap;rounded=0;fontSize=12;" parent="1" vertex="1">
          <mxGeometry x="820" y="140" width="90" height="20" as="geometry" />
        </mxCell>
        <mxCell id="78" value="" style="ellipse;whiteSpace=wrap;html=1;aspect=fixed;fontSize=12;fillColor=#d5e8d4;strokeColor=#82b366;" parent="1" vertex="1">
          <mxGeometry x="750" y="170" width="20" height="20" as="geometry" />
        </mxCell>
        <mxCell id="146" style="edgeStyle=orthogonalEdgeStyle;rounded=1;orthogonalLoop=1;jettySize=auto;html=1;dashed=1;endArrow=none;endFill=0;fillColor=#d5e8d4;strokeColor=#82b366;" parent="1" source="92" target="78" edge="1">
          <mxGeometry relative="1" as="geometry">
            <mxPoint x="760" y="160" as="targetPoint" />
            <mxPoint x="670" y="160" as="sourcePoint" />
            <Array as="points" />
          </mxGeometry>
        </mxCell>
        <mxCell id="163" style="edgeStyle=orthogonalEdgeStyle;rounded=1;orthogonalLoop=1;jettySize=auto;html=1;entryX=0;entryY=0.5;entryDx=0;entryDy=0;dashed=1;endArrow=none;endFill=0;fontSize=12;fontColor=#FFB570;fillColor=#ffe6cc;strokeColor=#d79b00;" parent="1" source="159" target="160" edge="1">
          <mxGeometry relative="1" as="geometry" />
        </mxCell>
        <mxCell id="159" value="" style="ellipse;whiteSpace=wrap;html=1;aspect=fixed;fontSize=10;fillColor=#ffe6cc;strokeColor=#d79b00;" parent="1" vertex="1">
          <mxGeometry x="550" y="140" width="20" height="20" as="geometry" />
        </mxCell>
        <mxCell id="160" value="RC3" style="ellipse;whiteSpace=wrap;html=1;aspect=fixed;fontSize=10;fillColor=#ffe6cc;strokeColor=#d79b00;labelPosition=center;verticalLabelPosition=top;align=center;verticalAlign=bottom;fontColor=#FFB570;" parent="1" vertex="1">
          <mxGeometry x="600" y="120" width="20" height="20" as="geometry" />
        </mxCell>
        <mxCell id="167" style="edgeStyle=orthogonalEdgeStyle;rounded=1;orthogonalLoop=1;jettySize=auto;html=1;dashed=1;endArrow=none;endFill=0;fontSize=12;fontColor=#FFB570;fillColor=#e1d5e7;strokeColor=#9673a6;" parent="1" source="165" target="85" edge="1">
          <mxGeometry relative="1" as="geometry" />
        </mxCell>
        <mxCell id="165" value="" style="ellipse;whiteSpace=wrap;html=1;aspect=fixed;fontSize=12;fillColor=#e1d5e7;strokeColor=#9673a6;" parent="1" vertex="1">
          <mxGeometry x="695" y="200" width="20" height="20" as="geometry" />
        </mxCell>
        <mxCell id="170" style="edgeStyle=orthogonalEdgeStyle;rounded=1;orthogonalLoop=1;jettySize=auto;html=1;dashed=1;endArrow=none;endFill=0;fontSize=12;fontColor=#FFB570;fillColor=#e1d5e7;strokeColor=#9673a6;" parent="1" source="168" target="86" edge="1">
          <mxGeometry relative="1" as="geometry" />
        </mxCell>
        <mxCell id="174" style="edgeStyle=orthogonalEdgeStyle;rounded=1;orthogonalLoop=1;jettySize=auto;html=1;endArrow=none;endFill=0;dashed=1;" parent="1" source="168" target="173" edge="1">
          <mxGeometry relative="1" as="geometry">
            <Array as="points">
              <mxPoint x="705" y="300" />
            </Array>
          </mxGeometry>
        </mxCell>
        <mxCell id="168" value="" style="ellipse;whiteSpace=wrap;html=1;aspect=fixed;fontSize=12;fillColor=#e1d5e7;strokeColor=#9673a6;" parent="1" vertex="1">
          <mxGeometry x="695" y="230" width="20" height="20" as="geometry" />
        </mxCell>
        <mxCell id="51" value="" style="ellipse;whiteSpace=wrap;html=1;aspect=fixed;fontSize=10;fillColor=#e1d5e7;strokeColor=#9673a6;" parent="1" vertex="1">
          <mxGeometry x="119.97" y="200" width="20" height="20" as="geometry" />
        </mxCell>
        <mxCell id="175" style="edgeStyle=orthogonalEdgeStyle;rounded=1;orthogonalLoop=1;jettySize=auto;html=1;dashed=1;endArrow=none;endFill=0;" parent="1" source="173" target="102" edge="1">
          <mxGeometry relative="1" as="geometry" />
        </mxCell>
        <mxCell id="173" value="" style="ellipse;whiteSpace=wrap;html=1;aspect=fixed;fontSize=10;fontColor=#333333;fillColor=#f5f5f5;strokeColor=#666666;" parent="1" vertex="1">
          <mxGeometry x="725" y="290" width="20" height="20" as="geometry" />
        </mxCell>
        <mxCell id="DCNus2Kl1Jdir14AUKTC-178" value="Pool" style="swimlane;html=1;childLayout=stackLayout;startSize=20;rounded=0;shadow=0;labelBackgroundColor=none;strokeWidth=1;fontFamily=Verdana;fontSize=8;align=center;" vertex="1" parent="1">
          <mxGeometry x="60" y="-1050" width="960" height="750" as="geometry" />
        </mxCell>
        <mxCell id="DCNus2Kl1Jdir14AUKTC-179" value="Lane 1" style="swimlane;html=1;startSize=20;" vertex="1" parent="DCNus2Kl1Jdir14AUKTC-178">
          <mxGeometry y="20" width="160" height="730" as="geometry" />
        </mxCell>
        <mxCell id="DCNus2Kl1Jdir14AUKTC-180" value="" style="rounded=1;whiteSpace=wrap;html=1;shadow=0;labelBackgroundColor=none;strokeWidth=1;fontFamily=Verdana;fontSize=8;align=center;" vertex="1" parent="DCNus2Kl1Jdir14AUKTC-179">
          <mxGeometry x="20" y="65" width="100" height="60" as="geometry" />
        </mxCell>
        <mxCell id="DCNus2Kl1Jdir14AUKTC-181" value="" style="rounded=1;whiteSpace=wrap;html=1;shadow=0;labelBackgroundColor=none;strokeWidth=1;fontFamily=Verdana;fontSize=8;align=center;" vertex="1" parent="DCNus2Kl1Jdir14AUKTC-179">
          <mxGeometry x="20" y="155" width="100" height="60" as="geometry" />
        </mxCell>
        <mxCell id="DCNus2Kl1Jdir14AUKTC-182" value="" style="rounded=1;whiteSpace=wrap;html=1;shadow=0;labelBackgroundColor=none;strokeWidth=1;fontFamily=Verdana;fontSize=8;align=center;" vertex="1" parent="DCNus2Kl1Jdir14AUKTC-179">
          <mxGeometry x="30" y="560" width="100" height="60" as="geometry" />
        </mxCell>
        <mxCell id="DCNus2Kl1Jdir14AUKTC-183" style="edgeStyle=orthogonalEdgeStyle;rounded=1;html=1;labelBackgroundColor=none;startArrow=none;startFill=0;startSize=5;endArrow=classicThin;endFill=1;endSize=5;jettySize=auto;orthogonalLoop=1;strokeWidth=1;fontFamily=Verdana;fontSize=8" edge="1" parent="DCNus2Kl1Jdir14AUKTC-178" source="DCNus2Kl1Jdir14AUKTC-180" target="DCNus2Kl1Jdir14AUKTC-199">
          <mxGeometry relative="1" as="geometry" />
        </mxCell>
        <mxCell id="DCNus2Kl1Jdir14AUKTC-184" style="edgeStyle=orthogonalEdgeStyle;rounded=1;html=1;labelBackgroundColor=none;startArrow=none;startFill=0;startSize=5;endArrow=classicThin;endFill=1;endSize=5;jettySize=auto;orthogonalLoop=1;strokeWidth=1;fontFamily=Verdana;fontSize=8" edge="1" parent="DCNus2Kl1Jdir14AUKTC-178" source="DCNus2Kl1Jdir14AUKTC-199" target="DCNus2Kl1Jdir14AUKTC-181">
          <mxGeometry relative="1" as="geometry">
            <Array as="points">
              <mxPoint x="240" y="155" />
              <mxPoint x="70" y="155" />
            </Array>
          </mxGeometry>
        </mxCell>
        <mxCell id="DCNus2Kl1Jdir14AUKTC-185" style="edgeStyle=orthogonalEdgeStyle;rounded=1;html=1;labelBackgroundColor=none;startArrow=none;startFill=0;startSize=5;endArrow=classicThin;endFill=1;endSize=5;jettySize=auto;orthogonalLoop=1;strokeWidth=1;fontFamily=Verdana;fontSize=8" edge="1" parent="DCNus2Kl1Jdir14AUKTC-178" source="DCNus2Kl1Jdir14AUKTC-181" target="DCNus2Kl1Jdir14AUKTC-201">
          <mxGeometry relative="1" as="geometry" />
        </mxCell>
        <mxCell id="DCNus2Kl1Jdir14AUKTC-186" style="edgeStyle=orthogonalEdgeStyle;rounded=1;html=1;labelBackgroundColor=none;startArrow=none;startFill=0;startSize=5;endArrow=classicThin;endFill=1;endSize=5;jettySize=auto;orthogonalLoop=1;strokeWidth=1;fontFamily=Verdana;fontSize=8" edge="1" parent="DCNus2Kl1Jdir14AUKTC-178" source="DCNus2Kl1Jdir14AUKTC-202" target="DCNus2Kl1Jdir14AUKTC-181">
          <mxGeometry relative="1" as="geometry" />
        </mxCell>
        <mxCell id="DCNus2Kl1Jdir14AUKTC-187" style="edgeStyle=orthogonalEdgeStyle;rounded=1;html=1;labelBackgroundColor=none;startArrow=none;startFill=0;startSize=5;endArrow=classicThin;endFill=1;endSize=5;jettySize=auto;orthogonalLoop=1;strokeWidth=1;fontFamily=Verdana;fontSize=8" edge="1" parent="DCNus2Kl1Jdir14AUKTC-178" source="DCNus2Kl1Jdir14AUKTC-207" target="DCNus2Kl1Jdir14AUKTC-181">
          <mxGeometry relative="1" as="geometry" />
        </mxCell>
        <mxCell id="DCNus2Kl1Jdir14AUKTC-188" style="edgeStyle=orthogonalEdgeStyle;rounded=1;html=1;labelBackgroundColor=none;startArrow=none;startFill=0;startSize=5;endArrow=classicThin;endFill=1;endSize=5;jettySize=auto;orthogonalLoop=1;strokeWidth=1;fontFamily=Verdana;fontSize=8" edge="1" parent="DCNus2Kl1Jdir14AUKTC-178" source="DCNus2Kl1Jdir14AUKTC-210" target="DCNus2Kl1Jdir14AUKTC-181">
          <mxGeometry relative="1" as="geometry">
            <Array as="points">
              <mxPoint x="20" y="690" />
              <mxPoint x="20" y="370" />
              <mxPoint x="70" y="370" />
            </Array>
          </mxGeometry>
        </mxCell>
        <mxCell id="DCNus2Kl1Jdir14AUKTC-189" style="edgeStyle=orthogonalEdgeStyle;rounded=1;html=1;labelBackgroundColor=none;startArrow=none;startFill=0;startSize=5;endArrow=classicThin;endFill=1;endSize=5;jettySize=auto;orthogonalLoop=1;strokeWidth=1;fontFamily=Verdana;fontSize=8" edge="1" parent="DCNus2Kl1Jdir14AUKTC-178" source="DCNus2Kl1Jdir14AUKTC-202" target="DCNus2Kl1Jdir14AUKTC-206">
          <mxGeometry relative="1" as="geometry" />
        </mxCell>
        <mxCell id="DCNus2Kl1Jdir14AUKTC-190" style="edgeStyle=orthogonalEdgeStyle;rounded=1;html=1;labelBackgroundColor=none;startArrow=none;startFill=0;startSize=5;endArrow=classicThin;endFill=1;endSize=5;jettySize=auto;orthogonalLoop=1;strokeWidth=1;fontFamily=Verdana;fontSize=8" edge="1" parent="DCNus2Kl1Jdir14AUKTC-178" source="DCNus2Kl1Jdir14AUKTC-210" target="DCNus2Kl1Jdir14AUKTC-218">
          <mxGeometry relative="1" as="geometry" />
        </mxCell>
        <mxCell id="DCNus2Kl1Jdir14AUKTC-191" style="edgeStyle=orthogonalEdgeStyle;rounded=1;html=1;labelBackgroundColor=none;startArrow=none;startFill=0;startSize=5;endArrow=classicThin;endFill=1;endSize=5;jettySize=auto;orthogonalLoop=1;strokeWidth=1;fontFamily=Verdana;fontSize=8" edge="1" parent="DCNus2Kl1Jdir14AUKTC-178" source="DCNus2Kl1Jdir14AUKTC-218" target="DCNus2Kl1Jdir14AUKTC-222">
          <mxGeometry relative="1" as="geometry" />
        </mxCell>
        <mxCell id="DCNus2Kl1Jdir14AUKTC-192" style="edgeStyle=orthogonalEdgeStyle;rounded=1;html=1;labelBackgroundColor=none;startArrow=none;startFill=0;startSize=5;endArrow=classicThin;endFill=1;endSize=5;jettySize=auto;orthogonalLoop=1;strokeWidth=1;fontFamily=Verdana;fontSize=8" edge="1" parent="DCNus2Kl1Jdir14AUKTC-178" source="DCNus2Kl1Jdir14AUKTC-208" target="DCNus2Kl1Jdir14AUKTC-215">
          <mxGeometry relative="1" as="geometry" />
        </mxCell>
        <mxCell id="DCNus2Kl1Jdir14AUKTC-193" style="edgeStyle=orthogonalEdgeStyle;rounded=1;html=1;labelBackgroundColor=none;startArrow=none;startFill=0;startSize=5;endArrow=classicThin;endFill=1;endSize=5;jettySize=auto;orthogonalLoop=1;strokeWidth=1;fontFamily=Verdana;fontSize=8" edge="1" parent="DCNus2Kl1Jdir14AUKTC-178" source="DCNus2Kl1Jdir14AUKTC-217" target="DCNus2Kl1Jdir14AUKTC-203">
          <mxGeometry relative="1" as="geometry">
            <Array as="points">
              <mxPoint x="660" y="610" />
              <mxPoint x="660" y="550" />
              <mxPoint x="400" y="550" />
            </Array>
          </mxGeometry>
        </mxCell>
        <mxCell id="DCNus2Kl1Jdir14AUKTC-194" style="edgeStyle=orthogonalEdgeStyle;rounded=1;html=1;labelBackgroundColor=none;startArrow=none;startFill=0;startSize=5;endArrow=classicThin;endFill=1;endSize=5;jettySize=auto;orthogonalLoop=1;strokeColor=#000000;strokeWidth=1;fontFamily=Verdana;fontSize=8;fontColor=#000000;" edge="1" parent="DCNus2Kl1Jdir14AUKTC-178" source="DCNus2Kl1Jdir14AUKTC-217" target="DCNus2Kl1Jdir14AUKTC-209">
          <mxGeometry relative="1" as="geometry" />
        </mxCell>
        <mxCell id="DCNus2Kl1Jdir14AUKTC-195" style="edgeStyle=orthogonalEdgeStyle;rounded=1;html=1;labelBackgroundColor=none;startArrow=none;startFill=0;startSize=5;endArrow=classicThin;endFill=1;endSize=5;jettySize=auto;orthogonalLoop=1;strokeWidth=1;fontFamily=Verdana;fontSize=8" edge="1" parent="DCNus2Kl1Jdir14AUKTC-178" source="DCNus2Kl1Jdir14AUKTC-217" target="DCNus2Kl1Jdir14AUKTC-182">
          <mxGeometry relative="1" as="geometry">
            <Array as="points">
              <mxPoint x="660" y="610" />
              <mxPoint x="660" y="550" />
              <mxPoint x="80" y="550" />
            </Array>
          </mxGeometry>
        </mxCell>
        <mxCell id="DCNus2Kl1Jdir14AUKTC-196" style="edgeStyle=orthogonalEdgeStyle;rounded=1;html=1;labelBackgroundColor=none;startArrow=none;startFill=0;startSize=5;endArrow=classicThin;endFill=1;endSize=5;jettySize=auto;orthogonalLoop=1;strokeWidth=1;fontFamily=Verdana;fontSize=8" edge="1" parent="DCNus2Kl1Jdir14AUKTC-178" source="DCNus2Kl1Jdir14AUKTC-182" target="DCNus2Kl1Jdir14AUKTC-209">
          <mxGeometry relative="1" as="geometry">
            <Array as="points">
              <mxPoint x="80" y="650" />
              <mxPoint x="490" y="650" />
              <mxPoint x="490" y="610" />
            </Array>
          </mxGeometry>
        </mxCell>
        <mxCell id="DCNus2Kl1Jdir14AUKTC-197" style="edgeStyle=orthogonalEdgeStyle;rounded=1;html=1;labelBackgroundColor=none;startArrow=none;startFill=0;startSize=5;endArrow=classicThin;endFill=1;endSize=5;jettySize=auto;orthogonalLoop=1;strokeWidth=1;fontFamily=Verdana;fontSize=8" edge="1" parent="DCNus2Kl1Jdir14AUKTC-178" source="DCNus2Kl1Jdir14AUKTC-203" target="DCNus2Kl1Jdir14AUKTC-209">
          <mxGeometry relative="1" as="geometry" />
        </mxCell>
        <mxCell id="DCNus2Kl1Jdir14AUKTC-198" value="Lane 2" style="swimlane;html=1;startSize=20;" vertex="1" parent="DCNus2Kl1Jdir14AUKTC-178">
          <mxGeometry x="160" y="20" width="160" height="730" as="geometry" />
        </mxCell>
        <mxCell id="DCNus2Kl1Jdir14AUKTC-199" value="" style="rounded=1;whiteSpace=wrap;html=1;shadow=0;labelBackgroundColor=none;strokeWidth=1;fontFamily=Verdana;fontSize=8;align=center;" vertex="1" parent="DCNus2Kl1Jdir14AUKTC-198">
          <mxGeometry x="30" y="65" width="100" height="60" as="geometry" />
        </mxCell>
        <mxCell id="DCNus2Kl1Jdir14AUKTC-200" value="Lane 3" style="swimlane;html=1;startSize=20;" vertex="1" parent="DCNus2Kl1Jdir14AUKTC-178">
          <mxGeometry x="320" y="20" width="160" height="730" as="geometry" />
        </mxCell>
        <mxCell id="DCNus2Kl1Jdir14AUKTC-201" value="" style="rounded=1;whiteSpace=wrap;html=1;shadow=0;labelBackgroundColor=none;strokeWidth=1;fontFamily=Verdana;fontSize=8;align=center;" vertex="1" parent="DCNus2Kl1Jdir14AUKTC-200">
          <mxGeometry x="30" y="155" width="100" height="60" as="geometry" />
        </mxCell>
        <mxCell id="DCNus2Kl1Jdir14AUKTC-202" value="" style="rhombus;whiteSpace=wrap;html=1;rounded=0;shadow=0;labelBackgroundColor=none;strokeWidth=1;fontFamily=Verdana;fontSize=8;align=center;" vertex="1" parent="DCNus2Kl1Jdir14AUKTC-200">
          <mxGeometry x="40" y="240" width="80" height="60" as="geometry" />
        </mxCell>
        <mxCell id="DCNus2Kl1Jdir14AUKTC-203" value="" style="rounded=1;whiteSpace=wrap;html=1;shadow=0;labelBackgroundColor=none;strokeWidth=1;fontFamily=Verdana;fontSize=8;align=center;" vertex="1" parent="DCNus2Kl1Jdir14AUKTC-200">
          <mxGeometry x="30" y="560" width="100" height="60" as="geometry" />
        </mxCell>
        <mxCell id="DCNus2Kl1Jdir14AUKTC-204" style="edgeStyle=orthogonalEdgeStyle;rounded=1;html=1;labelBackgroundColor=none;startArrow=none;startFill=0;startSize=5;endArrow=classicThin;endFill=1;endSize=5;jettySize=auto;orthogonalLoop=1;strokeWidth=1;fontFamily=Verdana;fontSize=8" edge="1" parent="DCNus2Kl1Jdir14AUKTC-200" source="DCNus2Kl1Jdir14AUKTC-201" target="DCNus2Kl1Jdir14AUKTC-202">
          <mxGeometry relative="1" as="geometry" />
        </mxCell>
        <mxCell id="DCNus2Kl1Jdir14AUKTC-205" value="Lane 4" style="swimlane;html=1;startSize=20;" vertex="1" parent="DCNus2Kl1Jdir14AUKTC-178">
          <mxGeometry x="480" y="20" width="160" height="730" as="geometry" />
        </mxCell>
        <mxCell id="DCNus2Kl1Jdir14AUKTC-206" value="" style="rounded=1;whiteSpace=wrap;html=1;shadow=0;labelBackgroundColor=none;strokeWidth=1;fontFamily=Verdana;fontSize=8;align=center;" vertex="1" parent="DCNus2Kl1Jdir14AUKTC-205">
          <mxGeometry x="30" y="240" width="100" height="60" as="geometry" />
        </mxCell>
        <mxCell id="DCNus2Kl1Jdir14AUKTC-207" value="" style="rhombus;whiteSpace=wrap;html=1;rounded=0;shadow=0;labelBackgroundColor=none;strokeWidth=1;fontFamily=Verdana;fontSize=8;align=center;" vertex="1" parent="DCNus2Kl1Jdir14AUKTC-205">
          <mxGeometry x="40" y="320" width="80" height="60" as="geometry" />
        </mxCell>
        <mxCell id="DCNus2Kl1Jdir14AUKTC-208" value="" style="rounded=1;whiteSpace=wrap;html=1;shadow=0;labelBackgroundColor=none;strokeWidth=1;fontFamily=Verdana;fontSize=8;align=center;" vertex="1" parent="DCNus2Kl1Jdir14AUKTC-205">
          <mxGeometry x="30" y="400" width="100" height="60" as="geometry" />
        </mxCell>
        <mxCell id="DCNus2Kl1Jdir14AUKTC-209" value="" style="rounded=1;whiteSpace=wrap;html=1;shadow=0;labelBackgroundColor=none;strokeWidth=1;fontFamily=Verdana;fontSize=8;align=center;" vertex="1" parent="DCNus2Kl1Jdir14AUKTC-205">
          <mxGeometry x="30" y="560" width="100" height="60" as="geometry" />
        </mxCell>
        <mxCell id="DCNus2Kl1Jdir14AUKTC-210" value="" style="rhombus;whiteSpace=wrap;html=1;rounded=0;shadow=0;labelBackgroundColor=none;strokeWidth=1;fontFamily=Verdana;fontSize=8;align=center;" vertex="1" parent="DCNus2Kl1Jdir14AUKTC-205">
          <mxGeometry x="40" y="640" width="80" height="60" as="geometry" />
        </mxCell>
        <mxCell id="DCNus2Kl1Jdir14AUKTC-211" style="edgeStyle=orthogonalEdgeStyle;rounded=1;html=1;labelBackgroundColor=none;startArrow=none;startFill=0;startSize=5;endArrow=classicThin;endFill=1;endSize=5;jettySize=auto;orthogonalLoop=1;strokeColor=#000000;strokeWidth=1;fontFamily=Verdana;fontSize=8;fontColor=#000000;" edge="1" parent="DCNus2Kl1Jdir14AUKTC-205" source="DCNus2Kl1Jdir14AUKTC-206" target="DCNus2Kl1Jdir14AUKTC-207">
          <mxGeometry relative="1" as="geometry" />
        </mxCell>
        <mxCell id="DCNus2Kl1Jdir14AUKTC-212" style="edgeStyle=orthogonalEdgeStyle;rounded=1;html=1;labelBackgroundColor=none;startArrow=none;startFill=0;startSize=5;endArrow=classicThin;endFill=1;endSize=5;jettySize=auto;orthogonalLoop=1;strokeWidth=1;fontFamily=Verdana;fontSize=8" edge="1" parent="DCNus2Kl1Jdir14AUKTC-205" source="DCNus2Kl1Jdir14AUKTC-207" target="DCNus2Kl1Jdir14AUKTC-208">
          <mxGeometry relative="1" as="geometry" />
        </mxCell>
        <mxCell id="DCNus2Kl1Jdir14AUKTC-213" style="edgeStyle=orthogonalEdgeStyle;rounded=1;html=1;labelBackgroundColor=none;startArrow=none;startFill=0;startSize=5;endArrow=classicThin;endFill=1;endSize=5;jettySize=auto;orthogonalLoop=1;strokeWidth=1;fontFamily=Verdana;fontSize=8" edge="1" parent="DCNus2Kl1Jdir14AUKTC-205" source="DCNus2Kl1Jdir14AUKTC-209" target="DCNus2Kl1Jdir14AUKTC-210">
          <mxGeometry relative="1" as="geometry" />
        </mxCell>
        <mxCell id="DCNus2Kl1Jdir14AUKTC-214" value="Lane 5" style="swimlane;html=1;startSize=20;" vertex="1" parent="DCNus2Kl1Jdir14AUKTC-178">
          <mxGeometry x="640" y="20" width="160" height="730" as="geometry" />
        </mxCell>
        <mxCell id="DCNus2Kl1Jdir14AUKTC-215" value="" style="rounded=1;whiteSpace=wrap;html=1;shadow=0;labelBackgroundColor=none;strokeWidth=1;fontFamily=Verdana;fontSize=8;align=center;" vertex="1" parent="DCNus2Kl1Jdir14AUKTC-214">
          <mxGeometry x="30" y="400" width="100" height="60" as="geometry" />
        </mxCell>
        <mxCell id="DCNus2Kl1Jdir14AUKTC-216" value="" style="rounded=1;whiteSpace=wrap;html=1;shadow=0;labelBackgroundColor=none;strokeWidth=1;fontFamily=Verdana;fontSize=8;align=center;" vertex="1" parent="DCNus2Kl1Jdir14AUKTC-214">
          <mxGeometry x="30" y="480" width="100" height="60" as="geometry" />
        </mxCell>
        <mxCell id="DCNus2Kl1Jdir14AUKTC-217" value="" style="rounded=1;whiteSpace=wrap;html=1;shadow=0;labelBackgroundColor=none;strokeWidth=1;fontFamily=Verdana;fontSize=8;align=center;" vertex="1" parent="DCNus2Kl1Jdir14AUKTC-214">
          <mxGeometry x="30" y="560" width="100" height="60" as="geometry" />
        </mxCell>
        <mxCell id="DCNus2Kl1Jdir14AUKTC-218" value="" style="rounded=1;whiteSpace=wrap;html=1;shadow=0;labelBackgroundColor=none;strokeWidth=1;fontFamily=Verdana;fontSize=8;align=center;" vertex="1" parent="DCNus2Kl1Jdir14AUKTC-214">
          <mxGeometry x="30" y="640" width="100" height="60" as="geometry" />
        </mxCell>
        <mxCell id="DCNus2Kl1Jdir14AUKTC-219" style="edgeStyle=orthogonalEdgeStyle;rounded=1;html=1;labelBackgroundColor=none;startArrow=none;startFill=0;startSize=5;endArrow=classicThin;endFill=1;endSize=5;jettySize=auto;orthogonalLoop=1;strokeWidth=1;fontFamily=Verdana;fontSize=8" edge="1" parent="DCNus2Kl1Jdir14AUKTC-214" source="DCNus2Kl1Jdir14AUKTC-215" target="DCNus2Kl1Jdir14AUKTC-216">
          <mxGeometry relative="1" as="geometry" />
        </mxCell>
        <mxCell id="DCNus2Kl1Jdir14AUKTC-220" style="edgeStyle=orthogonalEdgeStyle;rounded=1;html=1;labelBackgroundColor=none;startArrow=none;startFill=0;startSize=5;endArrow=classicThin;endFill=1;endSize=5;jettySize=auto;orthogonalLoop=1;strokeWidth=1;fontFamily=Verdana;fontSize=8" edge="1" parent="DCNus2Kl1Jdir14AUKTC-214" source="DCNus2Kl1Jdir14AUKTC-216" target="DCNus2Kl1Jdir14AUKTC-217">
          <mxGeometry relative="1" as="geometry" />
        </mxCell>
        <mxCell id="DCNus2Kl1Jdir14AUKTC-221" value="Lane 6" style="swimlane;html=1;startSize=20;" vertex="1" parent="DCNus2Kl1Jdir14AUKTC-178">
          <mxGeometry x="800" y="20" width="160" height="730" as="geometry" />
        </mxCell>
        <mxCell id="DCNus2Kl1Jdir14AUKTC-222" value="" style="rounded=1;whiteSpace=wrap;html=1;shadow=0;labelBackgroundColor=none;strokeWidth=1;fontFamily=Verdana;fontSize=8;align=center;" vertex="1" parent="DCNus2Kl1Jdir14AUKTC-221">
          <mxGeometry x="30" y="640" width="100" height="60" as="geometry" />
        </mxCell>
      </root>
    </mxGraphModel>
  </diagram>
  <diagram id="sivkOcaFKtYPkQvRmFzw" name="Release Schedule">
    <mxGraphModel dx="2074" dy="1068" grid="1" gridSize="10" guides="1" tooltips="1" connect="1" arrows="1" fold="1" page="1" pageScale="1" pageWidth="827" pageHeight="1169" math="0" shadow="0">
      <root>
        <mxCell id="0" />
        <mxCell id="1" parent="0" />
        <mxCell id="Ga4l1cD2eLtCjw1g9sJY-1" value="Mar" style="strokeWidth=1;fontStyle=0;html=1;" vertex="1" parent="1">
          <mxGeometry x="400" y="439" width="120" height="20" as="geometry" />
        </mxCell>
        <mxCell id="Ga4l1cD2eLtCjw1g9sJY-2" value="Apr" style="strokeWidth=1;fontStyle=0;html=1;" vertex="1" parent="1">
          <mxGeometry x="520" y="439" width="120" height="20" as="geometry" />
        </mxCell>
        <mxCell id="Ga4l1cD2eLtCjw1g9sJY-3" value="May" style="strokeWidth=1;fontStyle=0;html=1;" vertex="1" parent="1">
          <mxGeometry x="640" y="439" width="120" height="20" as="geometry" />
        </mxCell>
        <mxCell id="Ga4l1cD2eLtCjw1g9sJY-4" value="June" style="strokeWidth=1;fontStyle=0;html=1;" vertex="1" parent="1">
          <mxGeometry x="760" y="439" width="120" height="20" as="geometry" />
        </mxCell>
        <mxCell id="Ga4l1cD2eLtCjw1g9sJY-5" value="July" style="strokeWidth=1;fontStyle=0;html=1;" vertex="1" parent="1">
          <mxGeometry x="880" y="439" width="120" height="20" as="geometry" />
        </mxCell>
        <mxCell id="Ga4l1cD2eLtCjw1g9sJY-6" value="Aug" style="strokeWidth=1;fontStyle=0;html=1;" vertex="1" parent="1">
          <mxGeometry x="1000" y="439" width="120" height="20" as="geometry" />
        </mxCell>
        <mxCell id="Ga4l1cD2eLtCjw1g9sJY-7" value="Sept" style="strokeWidth=1;fontStyle=0;html=1;" vertex="1" parent="1">
          <mxGeometry x="1120" y="439" width="120" height="20" as="geometry" />
        </mxCell>
        <mxCell id="Ga4l1cD2eLtCjw1g9sJY-8" value="Oct" style="strokeWidth=1;fontStyle=0;html=1;" vertex="1" parent="1">
          <mxGeometry x="1240" y="439" width="120" height="20" as="geometry" />
        </mxCell>
        <mxCell id="Ga4l1cD2eLtCjw1g9sJY-9" value="Nov" style="strokeWidth=1;fontStyle=0;html=1;" vertex="1" parent="1">
          <mxGeometry x="1360" y="439" width="120" height="20" as="geometry" />
        </mxCell>
        <mxCell id="Ga4l1cD2eLtCjw1g9sJY-10" value="Feb" style="strokeWidth=1;fontStyle=0;html=1;" vertex="1" parent="1">
          <mxGeometry x="280" y="439" width="120" height="20" as="geometry" />
        </mxCell>
        <mxCell id="Ga4l1cD2eLtCjw1g9sJY-11" value="" style="align=left;strokeColor=#CCCCCC;html=1;" vertex="1" parent="1">
          <mxGeometry x="160" y="479" width="120" height="20" as="geometry" />
        </mxCell>
        <mxCell id="Ga4l1cD2eLtCjw1g9sJY-12" value="Jan" style="strokeWidth=1;fontStyle=0;html=1;" vertex="1" parent="1">
          <mxGeometry x="160" y="439" width="120" height="20" as="geometry" />
        </mxCell>
        <mxCell id="Ga4l1cD2eLtCjw1g9sJY-13" value="Dec" style="strokeWidth=1;fontStyle=0;html=1;" vertex="1" parent="1">
          <mxGeometry x="1480" y="439" width="120" height="20" as="geometry" />
        </mxCell>
        <mxCell id="Ga4l1cD2eLtCjw1g9sJY-14" value="" style="align=left;strokeColor=#CCCCCC;html=1;" vertex="1" parent="1">
          <mxGeometry x="160" y="499" width="120" height="20" as="geometry" />
        </mxCell>
        <mxCell id="Ga4l1cD2eLtCjw1g9sJY-15" value="" style="align=left;strokeColor=#CCCCCC;html=1;" vertex="1" parent="1">
          <mxGeometry x="160" y="519" width="120" height="20" as="geometry" />
        </mxCell>
        <mxCell id="Ga4l1cD2eLtCjw1g9sJY-16" value="" style="align=left;strokeColor=#CCCCCC;html=1;" vertex="1" parent="1">
          <mxGeometry x="160" y="539" width="120" height="20" as="geometry" />
        </mxCell>
        <mxCell id="Ga4l1cD2eLtCjw1g9sJY-17" value="" style="align=left;strokeColor=#CCCCCC;html=1;" vertex="1" parent="1">
          <mxGeometry x="160" y="559" width="120" height="20" as="geometry" />
        </mxCell>
        <mxCell id="Ga4l1cD2eLtCjw1g9sJY-18" value="" style="align=left;strokeColor=#CCCCCC;html=1;" vertex="1" parent="1">
          <mxGeometry x="160" y="579" width="120" height="20" as="geometry" />
        </mxCell>
        <mxCell id="Ga4l1cD2eLtCjw1g9sJY-19" value="" style="align=left;strokeColor=#CCCCCC;html=1;" vertex="1" parent="1">
          <mxGeometry x="160" y="599" width="120" height="20" as="geometry" />
        </mxCell>
        <mxCell id="Ga4l1cD2eLtCjw1g9sJY-20" value="" style="align=left;strokeColor=#CCCCCC;html=1;" vertex="1" parent="1">
          <mxGeometry x="160" y="619" width="120" height="20" as="geometry" />
        </mxCell>
        <mxCell id="Ga4l1cD2eLtCjw1g9sJY-21" value="" style="align=left;strokeColor=#CCCCCC;html=1;" vertex="1" parent="1">
          <mxGeometry x="160" y="639" width="120" height="20" as="geometry" />
        </mxCell>
        <mxCell id="Ga4l1cD2eLtCjw1g9sJY-22" value="" style="align=left;strokeColor=#CCCCCC;html=1;" vertex="1" parent="1">
          <mxGeometry x="160" y="659" width="120" height="20" as="geometry" />
        </mxCell>
        <mxCell id="Ga4l1cD2eLtCjw1g9sJY-23" value="" style="align=left;strokeColor=#CCCCCC;html=1;" vertex="1" parent="1">
          <mxGeometry x="160" y="679" width="120" height="20" as="geometry" />
        </mxCell>
        <mxCell id="Ga4l1cD2eLtCjw1g9sJY-24" value="" style="align=left;strokeColor=#CCCCCC;html=1;" vertex="1" parent="1">
          <mxGeometry x="160" y="699" width="120" height="20" as="geometry" />
        </mxCell>
        <mxCell id="Ga4l1cD2eLtCjw1g9sJY-25" value="" style="align=left;strokeColor=#CCCCCC;html=1;" vertex="1" parent="1">
          <mxGeometry x="160" y="719" width="120" height="20" as="geometry" />
        </mxCell>
        <mxCell id="Ga4l1cD2eLtCjw1g9sJY-26" value="" style="align=left;strokeColor=#CCCCCC;html=1;" vertex="1" parent="1">
          <mxGeometry x="160" y="739" width="120" height="20" as="geometry" />
        </mxCell>
        <mxCell id="Ga4l1cD2eLtCjw1g9sJY-27" value="" style="align=left;strokeColor=#CCCCCC;html=1;" vertex="1" parent="1">
          <mxGeometry x="160" y="759" width="120" height="20" as="geometry" />
        </mxCell>
        <mxCell id="Ga4l1cD2eLtCjw1g9sJY-28" value="" style="align=left;strokeColor=#CCCCCC;html=1;" vertex="1" parent="1">
          <mxGeometry x="160" y="779" width="120" height="20" as="geometry" />
        </mxCell>
        <mxCell id="Ga4l1cD2eLtCjw1g9sJY-29" value="" style="align=left;strokeColor=#CCCCCC;html=1;" vertex="1" parent="1">
          <mxGeometry x="280" y="479" width="120" height="20" as="geometry" />
        </mxCell>
        <mxCell id="Ga4l1cD2eLtCjw1g9sJY-30" value="" style="align=left;strokeColor=#CCCCCC;html=1;" vertex="1" parent="1">
          <mxGeometry x="280" y="499" width="120" height="20" as="geometry" />
        </mxCell>
        <mxCell id="Ga4l1cD2eLtCjw1g9sJY-31" value="" style="align=left;strokeColor=#CCCCCC;html=1;" vertex="1" parent="1">
          <mxGeometry x="280" y="519" width="120" height="20" as="geometry" />
        </mxCell>
        <mxCell id="Ga4l1cD2eLtCjw1g9sJY-32" value="" style="align=left;strokeColor=#CCCCCC;html=1;" vertex="1" parent="1">
          <mxGeometry x="280" y="539" width="120" height="20" as="geometry" />
        </mxCell>
        <mxCell id="Ga4l1cD2eLtCjw1g9sJY-33" value="" style="align=left;strokeColor=#CCCCCC;html=1;" vertex="1" parent="1">
          <mxGeometry x="280" y="559" width="120" height="20" as="geometry" />
        </mxCell>
        <mxCell id="Ga4l1cD2eLtCjw1g9sJY-34" value="" style="align=left;strokeColor=#CCCCCC;html=1;" vertex="1" parent="1">
          <mxGeometry x="280" y="579" width="120" height="20" as="geometry" />
        </mxCell>
        <mxCell id="Ga4l1cD2eLtCjw1g9sJY-35" value="" style="align=left;strokeColor=#CCCCCC;html=1;" vertex="1" parent="1">
          <mxGeometry x="280" y="599" width="120" height="20" as="geometry" />
        </mxCell>
        <mxCell id="Ga4l1cD2eLtCjw1g9sJY-36" value="" style="align=left;strokeColor=#CCCCCC;html=1;" vertex="1" parent="1">
          <mxGeometry x="280" y="619" width="120" height="20" as="geometry" />
        </mxCell>
        <mxCell id="Ga4l1cD2eLtCjw1g9sJY-37" value="" style="align=left;strokeColor=#CCCCCC;html=1;" vertex="1" parent="1">
          <mxGeometry x="280" y="639" width="120" height="20" as="geometry" />
        </mxCell>
        <mxCell id="Ga4l1cD2eLtCjw1g9sJY-38" value="" style="align=left;strokeColor=#CCCCCC;html=1;" vertex="1" parent="1">
          <mxGeometry x="280" y="659" width="120" height="20" as="geometry" />
        </mxCell>
        <mxCell id="Ga4l1cD2eLtCjw1g9sJY-39" value="" style="align=left;strokeColor=#CCCCCC;html=1;" vertex="1" parent="1">
          <mxGeometry x="280" y="679" width="120" height="20" as="geometry" />
        </mxCell>
        <mxCell id="Ga4l1cD2eLtCjw1g9sJY-40" value="" style="align=left;strokeColor=#CCCCCC;html=1;" vertex="1" parent="1">
          <mxGeometry x="280" y="699" width="120" height="20" as="geometry" />
        </mxCell>
        <mxCell id="Ga4l1cD2eLtCjw1g9sJY-41" value="" style="align=left;strokeColor=#CCCCCC;html=1;" vertex="1" parent="1">
          <mxGeometry x="280" y="719" width="120" height="20" as="geometry" />
        </mxCell>
        <mxCell id="Ga4l1cD2eLtCjw1g9sJY-42" value="" style="align=left;strokeColor=#CCCCCC;html=1;" vertex="1" parent="1">
          <mxGeometry x="280" y="739" width="120" height="20" as="geometry" />
        </mxCell>
        <mxCell id="Ga4l1cD2eLtCjw1g9sJY-43" value="" style="align=left;strokeColor=#CCCCCC;html=1;" vertex="1" parent="1">
          <mxGeometry x="280" y="759" width="120" height="20" as="geometry" />
        </mxCell>
        <mxCell id="Ga4l1cD2eLtCjw1g9sJY-44" value="" style="align=left;strokeColor=#CCCCCC;html=1;" vertex="1" parent="1">
          <mxGeometry x="280" y="779" width="120" height="20" as="geometry" />
        </mxCell>
        <mxCell id="Ga4l1cD2eLtCjw1g9sJY-45" value="" style="align=left;strokeColor=#CCCCCC;html=1;" vertex="1" parent="1">
          <mxGeometry x="400" y="479" width="120" height="20" as="geometry" />
        </mxCell>
        <mxCell id="Ga4l1cD2eLtCjw1g9sJY-46" value="" style="align=left;strokeColor=#CCCCCC;html=1;" vertex="1" parent="1">
          <mxGeometry x="400" y="499" width="120" height="20" as="geometry" />
        </mxCell>
        <mxCell id="Ga4l1cD2eLtCjw1g9sJY-47" value="" style="align=left;strokeColor=#CCCCCC;html=1;" vertex="1" parent="1">
          <mxGeometry x="400" y="519" width="120" height="20" as="geometry" />
        </mxCell>
        <mxCell id="Ga4l1cD2eLtCjw1g9sJY-48" value="" style="align=left;strokeColor=#CCCCCC;html=1;" vertex="1" parent="1">
          <mxGeometry x="400" y="539" width="120" height="20" as="geometry" />
        </mxCell>
        <mxCell id="Ga4l1cD2eLtCjw1g9sJY-49" value="" style="align=left;strokeColor=#CCCCCC;html=1;" vertex="1" parent="1">
          <mxGeometry x="400" y="559" width="120" height="20" as="geometry" />
        </mxCell>
        <mxCell id="Ga4l1cD2eLtCjw1g9sJY-50" value="" style="align=left;strokeColor=#CCCCCC;html=1;" vertex="1" parent="1">
          <mxGeometry x="400" y="579" width="120" height="20" as="geometry" />
        </mxCell>
        <mxCell id="Ga4l1cD2eLtCjw1g9sJY-51" value="" style="align=left;strokeColor=#CCCCCC;html=1;" vertex="1" parent="1">
          <mxGeometry x="400" y="599" width="120" height="20" as="geometry" />
        </mxCell>
        <mxCell id="Ga4l1cD2eLtCjw1g9sJY-52" value="" style="align=left;strokeColor=#CCCCCC;html=1;" vertex="1" parent="1">
          <mxGeometry x="400" y="619" width="120" height="20" as="geometry" />
        </mxCell>
        <mxCell id="Ga4l1cD2eLtCjw1g9sJY-53" value="" style="align=left;strokeColor=#CCCCCC;html=1;" vertex="1" parent="1">
          <mxGeometry x="400" y="639" width="120" height="20" as="geometry" />
        </mxCell>
        <mxCell id="Ga4l1cD2eLtCjw1g9sJY-54" value="" style="align=left;strokeColor=#CCCCCC;html=1;" vertex="1" parent="1">
          <mxGeometry x="400" y="659" width="120" height="20" as="geometry" />
        </mxCell>
        <mxCell id="Ga4l1cD2eLtCjw1g9sJY-55" value="" style="align=left;strokeColor=#CCCCCC;html=1;" vertex="1" parent="1">
          <mxGeometry x="400" y="679" width="120" height="20" as="geometry" />
        </mxCell>
        <mxCell id="Ga4l1cD2eLtCjw1g9sJY-56" value="" style="align=left;strokeColor=#CCCCCC;html=1;" vertex="1" parent="1">
          <mxGeometry x="400" y="699" width="120" height="20" as="geometry" />
        </mxCell>
        <mxCell id="Ga4l1cD2eLtCjw1g9sJY-57" value="" style="align=left;strokeColor=#CCCCCC;html=1;" vertex="1" parent="1">
          <mxGeometry x="400" y="719" width="120" height="20" as="geometry" />
        </mxCell>
        <mxCell id="Ga4l1cD2eLtCjw1g9sJY-58" value="" style="align=left;strokeColor=#CCCCCC;html=1;" vertex="1" parent="1">
          <mxGeometry x="400" y="739" width="120" height="20" as="geometry" />
        </mxCell>
        <mxCell id="Ga4l1cD2eLtCjw1g9sJY-59" value="" style="align=left;strokeColor=#CCCCCC;html=1;" vertex="1" parent="1">
          <mxGeometry x="400" y="759" width="120" height="20" as="geometry" />
        </mxCell>
        <mxCell id="Ga4l1cD2eLtCjw1g9sJY-60" value="" style="align=left;strokeColor=#CCCCCC;html=1;" vertex="1" parent="1">
          <mxGeometry x="400" y="779" width="120" height="20" as="geometry" />
        </mxCell>
        <mxCell id="Ga4l1cD2eLtCjw1g9sJY-61" value="" style="align=left;strokeColor=#CCCCCC;html=1;" vertex="1" parent="1">
          <mxGeometry x="520" y="479" width="120" height="20" as="geometry" />
        </mxCell>
        <mxCell id="Ga4l1cD2eLtCjw1g9sJY-62" value="" style="align=left;strokeColor=#CCCCCC;html=1;" vertex="1" parent="1">
          <mxGeometry x="520" y="499" width="120" height="20" as="geometry" />
        </mxCell>
        <mxCell id="Ga4l1cD2eLtCjw1g9sJY-63" value="" style="align=left;strokeColor=#CCCCCC;html=1;" vertex="1" parent="1">
          <mxGeometry x="520" y="519" width="120" height="20" as="geometry" />
        </mxCell>
        <mxCell id="Ga4l1cD2eLtCjw1g9sJY-64" value="" style="align=left;strokeColor=#CCCCCC;html=1;" vertex="1" parent="1">
          <mxGeometry x="520" y="539" width="120" height="20" as="geometry" />
        </mxCell>
        <mxCell id="Ga4l1cD2eLtCjw1g9sJY-65" value="" style="align=left;strokeColor=#CCCCCC;html=1;" vertex="1" parent="1">
          <mxGeometry x="520" y="559" width="120" height="20" as="geometry" />
        </mxCell>
        <mxCell id="Ga4l1cD2eLtCjw1g9sJY-66" value="" style="align=left;strokeColor=#CCCCCC;html=1;" vertex="1" parent="1">
          <mxGeometry x="520" y="579" width="120" height="20" as="geometry" />
        </mxCell>
        <mxCell id="Ga4l1cD2eLtCjw1g9sJY-67" value="" style="align=left;strokeColor=#CCCCCC;html=1;" vertex="1" parent="1">
          <mxGeometry x="520" y="599" width="120" height="20" as="geometry" />
        </mxCell>
        <mxCell id="Ga4l1cD2eLtCjw1g9sJY-68" value="" style="align=left;strokeColor=#CCCCCC;html=1;" vertex="1" parent="1">
          <mxGeometry x="520" y="619" width="120" height="20" as="geometry" />
        </mxCell>
        <mxCell id="Ga4l1cD2eLtCjw1g9sJY-69" value="" style="align=left;strokeColor=#CCCCCC;html=1;" vertex="1" parent="1">
          <mxGeometry x="520" y="639" width="120" height="20" as="geometry" />
        </mxCell>
        <mxCell id="Ga4l1cD2eLtCjw1g9sJY-70" value="" style="align=left;strokeColor=#CCCCCC;html=1;" vertex="1" parent="1">
          <mxGeometry x="520" y="659" width="120" height="20" as="geometry" />
        </mxCell>
        <mxCell id="Ga4l1cD2eLtCjw1g9sJY-71" value="" style="align=left;strokeColor=#CCCCCC;html=1;" vertex="1" parent="1">
          <mxGeometry x="520" y="679" width="120" height="20" as="geometry" />
        </mxCell>
        <mxCell id="Ga4l1cD2eLtCjw1g9sJY-72" value="" style="align=left;strokeColor=#CCCCCC;html=1;" vertex="1" parent="1">
          <mxGeometry x="520" y="699" width="120" height="20" as="geometry" />
        </mxCell>
        <mxCell id="Ga4l1cD2eLtCjw1g9sJY-73" value="" style="align=left;strokeColor=#CCCCCC;html=1;" vertex="1" parent="1">
          <mxGeometry x="520" y="719" width="120" height="20" as="geometry" />
        </mxCell>
        <mxCell id="Ga4l1cD2eLtCjw1g9sJY-74" value="" style="align=left;strokeColor=#CCCCCC;html=1;" vertex="1" parent="1">
          <mxGeometry x="520" y="739" width="120" height="20" as="geometry" />
        </mxCell>
        <mxCell id="Ga4l1cD2eLtCjw1g9sJY-75" value="" style="align=left;strokeColor=#CCCCCC;html=1;" vertex="1" parent="1">
          <mxGeometry x="520" y="759" width="120" height="20" as="geometry" />
        </mxCell>
        <mxCell id="Ga4l1cD2eLtCjw1g9sJY-76" value="" style="align=left;strokeColor=#CCCCCC;html=1;" vertex="1" parent="1">
          <mxGeometry x="520" y="779" width="120" height="20" as="geometry" />
        </mxCell>
        <mxCell id="Ga4l1cD2eLtCjw1g9sJY-77" value="" style="align=left;strokeColor=#CCCCCC;html=1;" vertex="1" parent="1">
          <mxGeometry x="640" y="479" width="120" height="20" as="geometry" />
        </mxCell>
        <mxCell id="Ga4l1cD2eLtCjw1g9sJY-78" value="" style="align=left;strokeColor=#CCCCCC;html=1;" vertex="1" parent="1">
          <mxGeometry x="640" y="499" width="120" height="20" as="geometry" />
        </mxCell>
        <mxCell id="Ga4l1cD2eLtCjw1g9sJY-79" value="" style="align=left;strokeColor=#CCCCCC;html=1;" vertex="1" parent="1">
          <mxGeometry x="640" y="519" width="120" height="20" as="geometry" />
        </mxCell>
        <mxCell id="Ga4l1cD2eLtCjw1g9sJY-80" value="" style="align=left;strokeColor=#CCCCCC;html=1;" vertex="1" parent="1">
          <mxGeometry x="640" y="539" width="120" height="20" as="geometry" />
        </mxCell>
        <mxCell id="Ga4l1cD2eLtCjw1g9sJY-81" value="" style="align=left;strokeColor=#CCCCCC;html=1;" vertex="1" parent="1">
          <mxGeometry x="640" y="559" width="120" height="20" as="geometry" />
        </mxCell>
        <mxCell id="Ga4l1cD2eLtCjw1g9sJY-82" value="" style="align=left;strokeColor=#CCCCCC;html=1;" vertex="1" parent="1">
          <mxGeometry x="640" y="579" width="120" height="20" as="geometry" />
        </mxCell>
        <mxCell id="Ga4l1cD2eLtCjw1g9sJY-83" value="" style="align=left;strokeColor=#CCCCCC;html=1;" vertex="1" parent="1">
          <mxGeometry x="640" y="599" width="120" height="20" as="geometry" />
        </mxCell>
        <mxCell id="Ga4l1cD2eLtCjw1g9sJY-84" value="" style="align=left;strokeColor=#CCCCCC;html=1;" vertex="1" parent="1">
          <mxGeometry x="640" y="619" width="120" height="20" as="geometry" />
        </mxCell>
        <mxCell id="Ga4l1cD2eLtCjw1g9sJY-85" value="" style="align=left;strokeColor=#CCCCCC;html=1;" vertex="1" parent="1">
          <mxGeometry x="640" y="639" width="120" height="20" as="geometry" />
        </mxCell>
        <mxCell id="Ga4l1cD2eLtCjw1g9sJY-86" value="" style="align=left;strokeColor=#CCCCCC;html=1;" vertex="1" parent="1">
          <mxGeometry x="640" y="659" width="120" height="20" as="geometry" />
        </mxCell>
        <mxCell id="Ga4l1cD2eLtCjw1g9sJY-87" value="" style="align=left;strokeColor=#CCCCCC;html=1;" vertex="1" parent="1">
          <mxGeometry x="640" y="679" width="120" height="20" as="geometry" />
        </mxCell>
        <mxCell id="Ga4l1cD2eLtCjw1g9sJY-88" value="" style="align=left;strokeColor=#CCCCCC;html=1;" vertex="1" parent="1">
          <mxGeometry x="640" y="699" width="120" height="20" as="geometry" />
        </mxCell>
        <mxCell id="Ga4l1cD2eLtCjw1g9sJY-89" value="" style="align=left;strokeColor=#CCCCCC;html=1;" vertex="1" parent="1">
          <mxGeometry x="640" y="719" width="120" height="20" as="geometry" />
        </mxCell>
        <mxCell id="Ga4l1cD2eLtCjw1g9sJY-90" value="" style="align=left;strokeColor=#CCCCCC;html=1;" vertex="1" parent="1">
          <mxGeometry x="640" y="739" width="120" height="20" as="geometry" />
        </mxCell>
        <mxCell id="Ga4l1cD2eLtCjw1g9sJY-91" value="" style="align=left;strokeColor=#CCCCCC;html=1;" vertex="1" parent="1">
          <mxGeometry x="640" y="759" width="120" height="20" as="geometry" />
        </mxCell>
        <mxCell id="Ga4l1cD2eLtCjw1g9sJY-92" value="" style="align=left;strokeColor=#CCCCCC;html=1;" vertex="1" parent="1">
          <mxGeometry x="640" y="779" width="120" height="20" as="geometry" />
        </mxCell>
        <mxCell id="Ga4l1cD2eLtCjw1g9sJY-93" value="" style="align=left;strokeColor=#CCCCCC;html=1;" vertex="1" parent="1">
          <mxGeometry x="760" y="479" width="120" height="20" as="geometry" />
        </mxCell>
        <mxCell id="Ga4l1cD2eLtCjw1g9sJY-94" value="" style="align=left;strokeColor=#CCCCCC;html=1;" vertex="1" parent="1">
          <mxGeometry x="760" y="499" width="120" height="20" as="geometry" />
        </mxCell>
        <mxCell id="Ga4l1cD2eLtCjw1g9sJY-95" value="" style="align=left;strokeColor=#CCCCCC;html=1;" vertex="1" parent="1">
          <mxGeometry x="760" y="519" width="120" height="20" as="geometry" />
        </mxCell>
        <mxCell id="Ga4l1cD2eLtCjw1g9sJY-96" value="" style="align=left;strokeColor=#CCCCCC;html=1;" vertex="1" parent="1">
          <mxGeometry x="760" y="539" width="120" height="20" as="geometry" />
        </mxCell>
        <mxCell id="Ga4l1cD2eLtCjw1g9sJY-97" value="" style="align=left;strokeColor=#CCCCCC;html=1;" vertex="1" parent="1">
          <mxGeometry x="760" y="559" width="120" height="20" as="geometry" />
        </mxCell>
        <mxCell id="Ga4l1cD2eLtCjw1g9sJY-98" value="" style="align=left;strokeColor=#CCCCCC;html=1;" vertex="1" parent="1">
          <mxGeometry x="760" y="579" width="120" height="20" as="geometry" />
        </mxCell>
        <mxCell id="Ga4l1cD2eLtCjw1g9sJY-99" value="" style="align=left;strokeColor=#CCCCCC;html=1;" vertex="1" parent="1">
          <mxGeometry x="760" y="599" width="120" height="20" as="geometry" />
        </mxCell>
        <mxCell id="Ga4l1cD2eLtCjw1g9sJY-100" value="" style="align=left;strokeColor=#CCCCCC;html=1;" vertex="1" parent="1">
          <mxGeometry x="760" y="619" width="120" height="20" as="geometry" />
        </mxCell>
        <mxCell id="Ga4l1cD2eLtCjw1g9sJY-101" value="" style="align=left;strokeColor=#CCCCCC;html=1;" vertex="1" parent="1">
          <mxGeometry x="760" y="639" width="120" height="20" as="geometry" />
        </mxCell>
        <mxCell id="Ga4l1cD2eLtCjw1g9sJY-102" value="" style="align=left;strokeColor=#CCCCCC;html=1;" vertex="1" parent="1">
          <mxGeometry x="760" y="659" width="120" height="20" as="geometry" />
        </mxCell>
        <mxCell id="Ga4l1cD2eLtCjw1g9sJY-103" value="" style="align=left;strokeColor=#CCCCCC;html=1;" vertex="1" parent="1">
          <mxGeometry x="760" y="679" width="120" height="20" as="geometry" />
        </mxCell>
        <mxCell id="Ga4l1cD2eLtCjw1g9sJY-104" value="" style="align=left;strokeColor=#CCCCCC;html=1;" vertex="1" parent="1">
          <mxGeometry x="760" y="699" width="120" height="20" as="geometry" />
        </mxCell>
        <mxCell id="Ga4l1cD2eLtCjw1g9sJY-105" value="" style="align=left;strokeColor=#CCCCCC;html=1;" vertex="1" parent="1">
          <mxGeometry x="760" y="719" width="120" height="20" as="geometry" />
        </mxCell>
        <mxCell id="Ga4l1cD2eLtCjw1g9sJY-106" value="" style="align=left;strokeColor=#CCCCCC;html=1;" vertex="1" parent="1">
          <mxGeometry x="760" y="739" width="120" height="20" as="geometry" />
        </mxCell>
        <mxCell id="Ga4l1cD2eLtCjw1g9sJY-107" value="" style="align=left;strokeColor=#CCCCCC;html=1;" vertex="1" parent="1">
          <mxGeometry x="760" y="759" width="120" height="20" as="geometry" />
        </mxCell>
        <mxCell id="Ga4l1cD2eLtCjw1g9sJY-108" value="" style="align=left;strokeColor=#CCCCCC;html=1;" vertex="1" parent="1">
          <mxGeometry x="760" y="779" width="120" height="20" as="geometry" />
        </mxCell>
        <mxCell id="Ga4l1cD2eLtCjw1g9sJY-109" value="" style="align=left;strokeColor=#CCCCCC;html=1;" vertex="1" parent="1">
          <mxGeometry x="880" y="479" width="120" height="20" as="geometry" />
        </mxCell>
        <mxCell id="Ga4l1cD2eLtCjw1g9sJY-110" value="" style="align=left;strokeColor=#CCCCCC;html=1;" vertex="1" parent="1">
          <mxGeometry x="880" y="499" width="120" height="20" as="geometry" />
        </mxCell>
        <mxCell id="Ga4l1cD2eLtCjw1g9sJY-111" value="" style="align=left;strokeColor=#CCCCCC;html=1;" vertex="1" parent="1">
          <mxGeometry x="880" y="519" width="120" height="20" as="geometry" />
        </mxCell>
        <mxCell id="Ga4l1cD2eLtCjw1g9sJY-112" value="" style="align=left;strokeColor=#CCCCCC;html=1;" vertex="1" parent="1">
          <mxGeometry x="880" y="539" width="120" height="20" as="geometry" />
        </mxCell>
        <mxCell id="Ga4l1cD2eLtCjw1g9sJY-113" value="" style="align=left;strokeColor=#CCCCCC;html=1;" vertex="1" parent="1">
          <mxGeometry x="880" y="559" width="120" height="20" as="geometry" />
        </mxCell>
        <mxCell id="Ga4l1cD2eLtCjw1g9sJY-114" value="" style="align=left;strokeColor=#CCCCCC;html=1;" vertex="1" parent="1">
          <mxGeometry x="880" y="579" width="120" height="20" as="geometry" />
        </mxCell>
        <mxCell id="Ga4l1cD2eLtCjw1g9sJY-115" value="" style="align=left;strokeColor=#CCCCCC;html=1;" vertex="1" parent="1">
          <mxGeometry x="880" y="599" width="120" height="20" as="geometry" />
        </mxCell>
        <mxCell id="Ga4l1cD2eLtCjw1g9sJY-116" value="" style="align=left;strokeColor=#CCCCCC;html=1;" vertex="1" parent="1">
          <mxGeometry x="880" y="619" width="120" height="20" as="geometry" />
        </mxCell>
        <mxCell id="Ga4l1cD2eLtCjw1g9sJY-117" value="" style="align=left;strokeColor=#CCCCCC;html=1;" vertex="1" parent="1">
          <mxGeometry x="880" y="639" width="120" height="20" as="geometry" />
        </mxCell>
        <mxCell id="Ga4l1cD2eLtCjw1g9sJY-118" value="" style="align=left;strokeColor=#CCCCCC;html=1;" vertex="1" parent="1">
          <mxGeometry x="880" y="659" width="120" height="20" as="geometry" />
        </mxCell>
        <mxCell id="Ga4l1cD2eLtCjw1g9sJY-119" value="" style="align=left;strokeColor=#CCCCCC;html=1;" vertex="1" parent="1">
          <mxGeometry x="880" y="679" width="120" height="20" as="geometry" />
        </mxCell>
        <mxCell id="Ga4l1cD2eLtCjw1g9sJY-120" value="" style="align=left;strokeColor=#CCCCCC;html=1;" vertex="1" parent="1">
          <mxGeometry x="880" y="699" width="120" height="20" as="geometry" />
        </mxCell>
        <mxCell id="Ga4l1cD2eLtCjw1g9sJY-121" value="" style="align=left;strokeColor=#CCCCCC;html=1;" vertex="1" parent="1">
          <mxGeometry x="880" y="719" width="120" height="20" as="geometry" />
        </mxCell>
        <mxCell id="Ga4l1cD2eLtCjw1g9sJY-122" value="" style="align=left;strokeColor=#CCCCCC;html=1;" vertex="1" parent="1">
          <mxGeometry x="880" y="739" width="120" height="20" as="geometry" />
        </mxCell>
        <mxCell id="Ga4l1cD2eLtCjw1g9sJY-123" value="" style="align=left;strokeColor=#CCCCCC;html=1;" vertex="1" parent="1">
          <mxGeometry x="880" y="759" width="120" height="20" as="geometry" />
        </mxCell>
        <mxCell id="Ga4l1cD2eLtCjw1g9sJY-124" value="" style="align=left;strokeColor=#CCCCCC;html=1;" vertex="1" parent="1">
          <mxGeometry x="880" y="779" width="120" height="20" as="geometry" />
        </mxCell>
        <mxCell id="Ga4l1cD2eLtCjw1g9sJY-125" value="" style="align=left;strokeColor=#CCCCCC;html=1;" vertex="1" parent="1">
          <mxGeometry x="1000" y="479" width="120" height="20" as="geometry" />
        </mxCell>
        <mxCell id="Ga4l1cD2eLtCjw1g9sJY-126" value="" style="align=left;strokeColor=#CCCCCC;html=1;" vertex="1" parent="1">
          <mxGeometry x="1000" y="499" width="120" height="20" as="geometry" />
        </mxCell>
        <mxCell id="Ga4l1cD2eLtCjw1g9sJY-127" value="" style="align=left;strokeColor=#CCCCCC;html=1;" vertex="1" parent="1">
          <mxGeometry x="1000" y="519" width="120" height="20" as="geometry" />
        </mxCell>
        <mxCell id="Ga4l1cD2eLtCjw1g9sJY-128" value="" style="align=left;strokeColor=#CCCCCC;html=1;" vertex="1" parent="1">
          <mxGeometry x="1000" y="539" width="120" height="20" as="geometry" />
        </mxCell>
        <mxCell id="Ga4l1cD2eLtCjw1g9sJY-129" value="" style="align=left;strokeColor=#CCCCCC;html=1;" vertex="1" parent="1">
          <mxGeometry x="1000" y="559" width="120" height="20" as="geometry" />
        </mxCell>
        <mxCell id="Ga4l1cD2eLtCjw1g9sJY-130" value="" style="align=left;strokeColor=#CCCCCC;html=1;" vertex="1" parent="1">
          <mxGeometry x="1000" y="579" width="120" height="20" as="geometry" />
        </mxCell>
        <mxCell id="Ga4l1cD2eLtCjw1g9sJY-131" value="" style="align=left;strokeColor=#CCCCCC;html=1;" vertex="1" parent="1">
          <mxGeometry x="1000" y="599" width="120" height="20" as="geometry" />
        </mxCell>
        <mxCell id="Ga4l1cD2eLtCjw1g9sJY-132" value="" style="align=left;strokeColor=#CCCCCC;html=1;" vertex="1" parent="1">
          <mxGeometry x="1000" y="619" width="120" height="20" as="geometry" />
        </mxCell>
        <mxCell id="Ga4l1cD2eLtCjw1g9sJY-133" value="" style="align=left;strokeColor=#CCCCCC;html=1;" vertex="1" parent="1">
          <mxGeometry x="1000" y="639" width="120" height="20" as="geometry" />
        </mxCell>
        <mxCell id="Ga4l1cD2eLtCjw1g9sJY-134" value="" style="align=left;strokeColor=#CCCCCC;html=1;" vertex="1" parent="1">
          <mxGeometry x="1000" y="659" width="120" height="20" as="geometry" />
        </mxCell>
        <mxCell id="Ga4l1cD2eLtCjw1g9sJY-135" value="" style="align=left;strokeColor=#CCCCCC;html=1;" vertex="1" parent="1">
          <mxGeometry x="1000" y="679" width="120" height="20" as="geometry" />
        </mxCell>
        <mxCell id="Ga4l1cD2eLtCjw1g9sJY-136" value="" style="align=left;strokeColor=#CCCCCC;html=1;" vertex="1" parent="1">
          <mxGeometry x="1000" y="699" width="120" height="20" as="geometry" />
        </mxCell>
        <mxCell id="Ga4l1cD2eLtCjw1g9sJY-137" value="" style="align=left;strokeColor=#CCCCCC;html=1;" vertex="1" parent="1">
          <mxGeometry x="1000" y="719" width="120" height="20" as="geometry" />
        </mxCell>
        <mxCell id="Ga4l1cD2eLtCjw1g9sJY-138" value="" style="align=left;strokeColor=#CCCCCC;html=1;" vertex="1" parent="1">
          <mxGeometry x="1000" y="739" width="120" height="20" as="geometry" />
        </mxCell>
        <mxCell id="Ga4l1cD2eLtCjw1g9sJY-139" value="" style="align=left;strokeColor=#CCCCCC;html=1;" vertex="1" parent="1">
          <mxGeometry x="1000" y="759" width="120" height="20" as="geometry" />
        </mxCell>
        <mxCell id="Ga4l1cD2eLtCjw1g9sJY-140" value="" style="align=left;strokeColor=#CCCCCC;html=1;" vertex="1" parent="1">
          <mxGeometry x="1000" y="779" width="120" height="20" as="geometry" />
        </mxCell>
        <mxCell id="Ga4l1cD2eLtCjw1g9sJY-141" value="" style="align=left;strokeColor=#CCCCCC;html=1;" vertex="1" parent="1">
          <mxGeometry x="1120" y="479" width="120" height="20" as="geometry" />
        </mxCell>
        <mxCell id="Ga4l1cD2eLtCjw1g9sJY-142" value="" style="align=left;strokeColor=#CCCCCC;html=1;" vertex="1" parent="1">
          <mxGeometry x="1120" y="499" width="120" height="20" as="geometry" />
        </mxCell>
        <mxCell id="Ga4l1cD2eLtCjw1g9sJY-143" value="" style="align=left;strokeColor=#CCCCCC;html=1;" vertex="1" parent="1">
          <mxGeometry x="1120" y="519" width="120" height="20" as="geometry" />
        </mxCell>
        <mxCell id="Ga4l1cD2eLtCjw1g9sJY-144" value="" style="align=left;strokeColor=#CCCCCC;html=1;" vertex="1" parent="1">
          <mxGeometry x="1120" y="539" width="120" height="20" as="geometry" />
        </mxCell>
        <mxCell id="Ga4l1cD2eLtCjw1g9sJY-145" value="" style="align=left;strokeColor=#CCCCCC;html=1;" vertex="1" parent="1">
          <mxGeometry x="1120" y="559" width="120" height="20" as="geometry" />
        </mxCell>
        <mxCell id="Ga4l1cD2eLtCjw1g9sJY-146" value="" style="align=left;strokeColor=#CCCCCC;html=1;" vertex="1" parent="1">
          <mxGeometry x="1120" y="579" width="120" height="20" as="geometry" />
        </mxCell>
        <mxCell id="Ga4l1cD2eLtCjw1g9sJY-147" value="" style="align=left;strokeColor=#CCCCCC;html=1;" vertex="1" parent="1">
          <mxGeometry x="1120" y="599" width="120" height="20" as="geometry" />
        </mxCell>
        <mxCell id="Ga4l1cD2eLtCjw1g9sJY-148" value="" style="align=left;strokeColor=#CCCCCC;html=1;" vertex="1" parent="1">
          <mxGeometry x="1120" y="619" width="120" height="20" as="geometry" />
        </mxCell>
        <mxCell id="Ga4l1cD2eLtCjw1g9sJY-149" value="" style="align=left;strokeColor=#CCCCCC;html=1;" vertex="1" parent="1">
          <mxGeometry x="1120" y="639" width="120" height="20" as="geometry" />
        </mxCell>
        <mxCell id="Ga4l1cD2eLtCjw1g9sJY-150" value="" style="align=left;strokeColor=#CCCCCC;html=1;" vertex="1" parent="1">
          <mxGeometry x="1120" y="659" width="120" height="20" as="geometry" />
        </mxCell>
        <mxCell id="Ga4l1cD2eLtCjw1g9sJY-151" value="" style="align=left;strokeColor=#CCCCCC;html=1;" vertex="1" parent="1">
          <mxGeometry x="1120" y="679" width="120" height="20" as="geometry" />
        </mxCell>
        <mxCell id="Ga4l1cD2eLtCjw1g9sJY-152" value="" style="align=left;strokeColor=#CCCCCC;html=1;" vertex="1" parent="1">
          <mxGeometry x="1120" y="699" width="120" height="20" as="geometry" />
        </mxCell>
        <mxCell id="Ga4l1cD2eLtCjw1g9sJY-153" value="" style="align=left;strokeColor=#CCCCCC;html=1;" vertex="1" parent="1">
          <mxGeometry x="1120" y="719" width="120" height="20" as="geometry" />
        </mxCell>
        <mxCell id="Ga4l1cD2eLtCjw1g9sJY-154" value="" style="align=left;strokeColor=#CCCCCC;html=1;" vertex="1" parent="1">
          <mxGeometry x="1120" y="739" width="120" height="20" as="geometry" />
        </mxCell>
        <mxCell id="Ga4l1cD2eLtCjw1g9sJY-155" value="" style="align=left;strokeColor=#CCCCCC;html=1;" vertex="1" parent="1">
          <mxGeometry x="1120" y="759" width="120" height="20" as="geometry" />
        </mxCell>
        <mxCell id="Ga4l1cD2eLtCjw1g9sJY-156" value="" style="align=left;strokeColor=#CCCCCC;html=1;" vertex="1" parent="1">
          <mxGeometry x="1120" y="779" width="120" height="20" as="geometry" />
        </mxCell>
        <mxCell id="Ga4l1cD2eLtCjw1g9sJY-157" value="" style="align=left;strokeColor=#CCCCCC;html=1;" vertex="1" parent="1">
          <mxGeometry x="1240" y="479" width="120" height="20" as="geometry" />
        </mxCell>
        <mxCell id="Ga4l1cD2eLtCjw1g9sJY-158" value="" style="align=left;strokeColor=#CCCCCC;html=1;" vertex="1" parent="1">
          <mxGeometry x="1240" y="499" width="120" height="20" as="geometry" />
        </mxCell>
        <mxCell id="Ga4l1cD2eLtCjw1g9sJY-159" value="" style="align=left;strokeColor=#CCCCCC;html=1;" vertex="1" parent="1">
          <mxGeometry x="1240" y="519" width="120" height="20" as="geometry" />
        </mxCell>
        <mxCell id="Ga4l1cD2eLtCjw1g9sJY-160" value="" style="align=left;strokeColor=#CCCCCC;html=1;" vertex="1" parent="1">
          <mxGeometry x="1240" y="539" width="120" height="20" as="geometry" />
        </mxCell>
        <mxCell id="Ga4l1cD2eLtCjw1g9sJY-161" value="" style="align=left;strokeColor=#CCCCCC;html=1;" vertex="1" parent="1">
          <mxGeometry x="1240" y="559" width="120" height="20" as="geometry" />
        </mxCell>
        <mxCell id="Ga4l1cD2eLtCjw1g9sJY-162" value="" style="align=left;strokeColor=#CCCCCC;html=1;" vertex="1" parent="1">
          <mxGeometry x="1240" y="579" width="120" height="20" as="geometry" />
        </mxCell>
        <mxCell id="Ga4l1cD2eLtCjw1g9sJY-163" value="" style="align=left;strokeColor=#CCCCCC;html=1;" vertex="1" parent="1">
          <mxGeometry x="1240" y="599" width="120" height="20" as="geometry" />
        </mxCell>
        <mxCell id="Ga4l1cD2eLtCjw1g9sJY-164" value="" style="align=left;strokeColor=#CCCCCC;html=1;" vertex="1" parent="1">
          <mxGeometry x="1240" y="619" width="120" height="20" as="geometry" />
        </mxCell>
        <mxCell id="Ga4l1cD2eLtCjw1g9sJY-165" value="" style="align=left;strokeColor=#CCCCCC;html=1;" vertex="1" parent="1">
          <mxGeometry x="1240" y="639" width="120" height="20" as="geometry" />
        </mxCell>
        <mxCell id="Ga4l1cD2eLtCjw1g9sJY-166" value="" style="align=left;strokeColor=#CCCCCC;html=1;" vertex="1" parent="1">
          <mxGeometry x="1240" y="659" width="120" height="20" as="geometry" />
        </mxCell>
        <mxCell id="Ga4l1cD2eLtCjw1g9sJY-167" value="" style="align=left;strokeColor=#CCCCCC;html=1;" vertex="1" parent="1">
          <mxGeometry x="1240" y="679" width="120" height="20" as="geometry" />
        </mxCell>
        <mxCell id="Ga4l1cD2eLtCjw1g9sJY-168" value="" style="align=left;strokeColor=#CCCCCC;html=1;" vertex="1" parent="1">
          <mxGeometry x="1240" y="699" width="120" height="20" as="geometry" />
        </mxCell>
        <mxCell id="Ga4l1cD2eLtCjw1g9sJY-169" value="" style="align=left;strokeColor=#CCCCCC;html=1;" vertex="1" parent="1">
          <mxGeometry x="1240" y="719" width="120" height="20" as="geometry" />
        </mxCell>
        <mxCell id="Ga4l1cD2eLtCjw1g9sJY-170" value="" style="align=left;strokeColor=#CCCCCC;html=1;" vertex="1" parent="1">
          <mxGeometry x="1240" y="739" width="120" height="20" as="geometry" />
        </mxCell>
        <mxCell id="Ga4l1cD2eLtCjw1g9sJY-171" value="" style="align=left;strokeColor=#CCCCCC;html=1;" vertex="1" parent="1">
          <mxGeometry x="1240" y="759" width="120" height="20" as="geometry" />
        </mxCell>
        <mxCell id="Ga4l1cD2eLtCjw1g9sJY-172" value="" style="align=left;strokeColor=#CCCCCC;html=1;" vertex="1" parent="1">
          <mxGeometry x="1240" y="779" width="120" height="20" as="geometry" />
        </mxCell>
        <mxCell id="Ga4l1cD2eLtCjw1g9sJY-173" value="" style="align=left;strokeColor=#CCCCCC;html=1;" vertex="1" parent="1">
          <mxGeometry x="1360" y="479" width="120" height="20" as="geometry" />
        </mxCell>
        <mxCell id="Ga4l1cD2eLtCjw1g9sJY-174" value="" style="align=left;strokeColor=#CCCCCC;html=1;" vertex="1" parent="1">
          <mxGeometry x="1360" y="499" width="120" height="20" as="geometry" />
        </mxCell>
        <mxCell id="Ga4l1cD2eLtCjw1g9sJY-175" value="" style="align=left;strokeColor=#CCCCCC;html=1;" vertex="1" parent="1">
          <mxGeometry x="1360" y="519" width="120" height="20" as="geometry" />
        </mxCell>
        <mxCell id="Ga4l1cD2eLtCjw1g9sJY-176" value="" style="align=left;strokeColor=#CCCCCC;html=1;" vertex="1" parent="1">
          <mxGeometry x="1360" y="539" width="120" height="20" as="geometry" />
        </mxCell>
        <mxCell id="Ga4l1cD2eLtCjw1g9sJY-177" value="" style="align=left;strokeColor=#CCCCCC;html=1;" vertex="1" parent="1">
          <mxGeometry x="1360" y="559" width="120" height="20" as="geometry" />
        </mxCell>
        <mxCell id="Ga4l1cD2eLtCjw1g9sJY-178" value="" style="align=left;strokeColor=#CCCCCC;html=1;" vertex="1" parent="1">
          <mxGeometry x="1360" y="579" width="120" height="20" as="geometry" />
        </mxCell>
        <mxCell id="Ga4l1cD2eLtCjw1g9sJY-179" value="" style="align=left;strokeColor=#CCCCCC;html=1;" vertex="1" parent="1">
          <mxGeometry x="1360" y="599" width="120" height="20" as="geometry" />
        </mxCell>
        <mxCell id="Ga4l1cD2eLtCjw1g9sJY-180" value="" style="align=left;strokeColor=#CCCCCC;html=1;" vertex="1" parent="1">
          <mxGeometry x="1360" y="619" width="120" height="20" as="geometry" />
        </mxCell>
        <mxCell id="Ga4l1cD2eLtCjw1g9sJY-181" value="" style="align=left;strokeColor=#CCCCCC;html=1;" vertex="1" parent="1">
          <mxGeometry x="1360" y="639" width="120" height="20" as="geometry" />
        </mxCell>
        <mxCell id="Ga4l1cD2eLtCjw1g9sJY-182" value="" style="align=left;strokeColor=#CCCCCC;html=1;" vertex="1" parent="1">
          <mxGeometry x="1360" y="659" width="120" height="20" as="geometry" />
        </mxCell>
        <mxCell id="Ga4l1cD2eLtCjw1g9sJY-183" value="" style="align=left;strokeColor=#CCCCCC;html=1;" vertex="1" parent="1">
          <mxGeometry x="1360" y="679" width="120" height="20" as="geometry" />
        </mxCell>
        <mxCell id="Ga4l1cD2eLtCjw1g9sJY-184" value="" style="align=left;strokeColor=#CCCCCC;html=1;" vertex="1" parent="1">
          <mxGeometry x="1360" y="699" width="120" height="20" as="geometry" />
        </mxCell>
        <mxCell id="Ga4l1cD2eLtCjw1g9sJY-185" value="" style="align=left;strokeColor=#CCCCCC;html=1;" vertex="1" parent="1">
          <mxGeometry x="1360" y="719" width="120" height="20" as="geometry" />
        </mxCell>
        <mxCell id="Ga4l1cD2eLtCjw1g9sJY-186" value="" style="align=left;strokeColor=#CCCCCC;html=1;" vertex="1" parent="1">
          <mxGeometry x="1360" y="739" width="120" height="20" as="geometry" />
        </mxCell>
        <mxCell id="Ga4l1cD2eLtCjw1g9sJY-187" value="" style="align=left;strokeColor=#CCCCCC;html=1;" vertex="1" parent="1">
          <mxGeometry x="1360" y="759" width="120" height="20" as="geometry" />
        </mxCell>
        <mxCell id="Ga4l1cD2eLtCjw1g9sJY-188" value="" style="align=left;strokeColor=#CCCCCC;html=1;" vertex="1" parent="1">
          <mxGeometry x="1360" y="779" width="120" height="20" as="geometry" />
        </mxCell>
        <mxCell id="Ga4l1cD2eLtCjw1g9sJY-189" value="" style="align=left;strokeColor=#CCCCCC;html=1;" vertex="1" parent="1">
          <mxGeometry x="1480" y="479" width="120" height="20" as="geometry" />
        </mxCell>
        <mxCell id="Ga4l1cD2eLtCjw1g9sJY-190" value="" style="align=left;strokeColor=#CCCCCC;html=1;" vertex="1" parent="1">
          <mxGeometry x="1480" y="499" width="120" height="20" as="geometry" />
        </mxCell>
        <mxCell id="Ga4l1cD2eLtCjw1g9sJY-191" value="" style="align=left;strokeColor=#CCCCCC;html=1;" vertex="1" parent="1">
          <mxGeometry x="1480" y="519" width="120" height="20" as="geometry" />
        </mxCell>
        <mxCell id="Ga4l1cD2eLtCjw1g9sJY-192" value="" style="align=left;strokeColor=#CCCCCC;html=1;" vertex="1" parent="1">
          <mxGeometry x="1480" y="539" width="120" height="20" as="geometry" />
        </mxCell>
        <mxCell id="Ga4l1cD2eLtCjw1g9sJY-193" value="" style="align=left;strokeColor=#CCCCCC;html=1;" vertex="1" parent="1">
          <mxGeometry x="1480" y="559" width="120" height="20" as="geometry" />
        </mxCell>
        <mxCell id="Ga4l1cD2eLtCjw1g9sJY-194" value="" style="align=left;strokeColor=#CCCCCC;html=1;" vertex="1" parent="1">
          <mxGeometry x="1480" y="579" width="120" height="20" as="geometry" />
        </mxCell>
        <mxCell id="Ga4l1cD2eLtCjw1g9sJY-195" value="" style="align=left;strokeColor=#CCCCCC;html=1;" vertex="1" parent="1">
          <mxGeometry x="1480" y="599" width="120" height="20" as="geometry" />
        </mxCell>
        <mxCell id="Ga4l1cD2eLtCjw1g9sJY-196" value="" style="align=left;strokeColor=#CCCCCC;html=1;" vertex="1" parent="1">
          <mxGeometry x="1480" y="619" width="120" height="20" as="geometry" />
        </mxCell>
        <mxCell id="Ga4l1cD2eLtCjw1g9sJY-197" value="" style="align=left;strokeColor=#CCCCCC;html=1;" vertex="1" parent="1">
          <mxGeometry x="1480" y="639" width="120" height="20" as="geometry" />
        </mxCell>
        <mxCell id="Ga4l1cD2eLtCjw1g9sJY-198" value="" style="align=left;strokeColor=#CCCCCC;html=1;" vertex="1" parent="1">
          <mxGeometry x="1480" y="659" width="120" height="20" as="geometry" />
        </mxCell>
        <mxCell id="Ga4l1cD2eLtCjw1g9sJY-199" value="" style="align=left;strokeColor=#CCCCCC;html=1;" vertex="1" parent="1">
          <mxGeometry x="1480" y="679" width="120" height="20" as="geometry" />
        </mxCell>
        <mxCell id="Ga4l1cD2eLtCjw1g9sJY-200" value="" style="align=left;strokeColor=#CCCCCC;html=1;" vertex="1" parent="1">
          <mxGeometry x="1480" y="699" width="120" height="20" as="geometry" />
        </mxCell>
        <mxCell id="Ga4l1cD2eLtCjw1g9sJY-201" value="" style="align=left;strokeColor=#CCCCCC;html=1;" vertex="1" parent="1">
          <mxGeometry x="1480" y="719" width="120" height="20" as="geometry" />
        </mxCell>
        <mxCell id="Ga4l1cD2eLtCjw1g9sJY-202" value="" style="align=left;strokeColor=#CCCCCC;html=1;" vertex="1" parent="1">
          <mxGeometry x="1480" y="739" width="120" height="20" as="geometry" />
        </mxCell>
        <mxCell id="Ga4l1cD2eLtCjw1g9sJY-203" value="" style="align=left;strokeColor=#CCCCCC;html=1;" vertex="1" parent="1">
          <mxGeometry x="1480" y="759" width="120" height="20" as="geometry" />
        </mxCell>
        <mxCell id="Ga4l1cD2eLtCjw1g9sJY-204" value="" style="align=left;strokeColor=#CCCCCC;html=1;" vertex="1" parent="1">
          <mxGeometry x="1480" y="779" width="120" height="20" as="geometry" />
        </mxCell>
        <mxCell id="Ga4l1cD2eLtCjw1g9sJY-205" value="W1" style="strokeWidth=1;fontStyle=0;html=1;" vertex="1" parent="1">
          <mxGeometry x="400" y="459" width="30" height="20" as="geometry" />
        </mxCell>
        <mxCell id="Ga4l1cD2eLtCjw1g9sJY-206" value="W2" style="strokeWidth=1;fontStyle=0;html=1;" vertex="1" parent="1">
          <mxGeometry x="430" y="459" width="30" height="20" as="geometry" />
        </mxCell>
        <mxCell id="Ga4l1cD2eLtCjw1g9sJY-207" value="W3" style="strokeWidth=1;fontStyle=0;html=1;" vertex="1" parent="1">
          <mxGeometry x="460" y="459" width="30" height="20" as="geometry" />
        </mxCell>
        <mxCell id="Ga4l1cD2eLtCjw1g9sJY-208" value="W4" style="strokeWidth=1;fontStyle=0;html=1;" vertex="1" parent="1">
          <mxGeometry x="490" y="459" width="30" height="20" as="geometry" />
        </mxCell>
        <mxCell id="Ga4l1cD2eLtCjw1g9sJY-209" value="W1" style="strokeWidth=1;fontStyle=0;html=1;" vertex="1" parent="1">
          <mxGeometry x="520" y="459" width="30" height="20" as="geometry" />
        </mxCell>
        <mxCell id="Ga4l1cD2eLtCjw1g9sJY-210" value="W2" style="strokeWidth=1;fontStyle=0;html=1;" vertex="1" parent="1">
          <mxGeometry x="550" y="459" width="30" height="20" as="geometry" />
        </mxCell>
        <mxCell id="Ga4l1cD2eLtCjw1g9sJY-211" value="W3" style="strokeWidth=1;fontStyle=0;html=1;" vertex="1" parent="1">
          <mxGeometry x="580" y="459" width="30" height="20" as="geometry" />
        </mxCell>
        <mxCell id="Ga4l1cD2eLtCjw1g9sJY-212" value="W4" style="strokeWidth=1;fontStyle=0;html=1;" vertex="1" parent="1">
          <mxGeometry x="610" y="459" width="30" height="20" as="geometry" />
        </mxCell>
        <mxCell id="Ga4l1cD2eLtCjw1g9sJY-213" value="W1" style="strokeWidth=1;fontStyle=0;html=1;" vertex="1" parent="1">
          <mxGeometry x="640" y="459" width="30" height="20" as="geometry" />
        </mxCell>
        <mxCell id="Ga4l1cD2eLtCjw1g9sJY-214" value="W2" style="strokeWidth=1;fontStyle=0;html=1;" vertex="1" parent="1">
          <mxGeometry x="670" y="459" width="30" height="20" as="geometry" />
        </mxCell>
        <mxCell id="Ga4l1cD2eLtCjw1g9sJY-215" value="W3" style="strokeWidth=1;fontStyle=0;html=1;" vertex="1" parent="1">
          <mxGeometry x="700" y="459" width="30" height="20" as="geometry" />
        </mxCell>
        <mxCell id="Ga4l1cD2eLtCjw1g9sJY-216" value="W4" style="strokeWidth=1;fontStyle=0;html=1;" vertex="1" parent="1">
          <mxGeometry x="730" y="459" width="30" height="20" as="geometry" />
        </mxCell>
        <mxCell id="Ga4l1cD2eLtCjw1g9sJY-217" value="W1" style="strokeWidth=1;fontStyle=0;html=1;" vertex="1" parent="1">
          <mxGeometry x="760" y="459" width="30" height="20" as="geometry" />
        </mxCell>
        <mxCell id="Ga4l1cD2eLtCjw1g9sJY-218" value="W2" style="strokeWidth=1;fontStyle=0;html=1;" vertex="1" parent="1">
          <mxGeometry x="790" y="459" width="30" height="20" as="geometry" />
        </mxCell>
        <mxCell id="Ga4l1cD2eLtCjw1g9sJY-219" value="W3" style="strokeWidth=1;fontStyle=0;html=1;" vertex="1" parent="1">
          <mxGeometry x="820" y="459" width="30" height="20" as="geometry" />
        </mxCell>
        <mxCell id="Ga4l1cD2eLtCjw1g9sJY-220" value="W4" style="strokeWidth=1;fontStyle=0;html=1;" vertex="1" parent="1">
          <mxGeometry x="850" y="459" width="30" height="20" as="geometry" />
        </mxCell>
        <mxCell id="Ga4l1cD2eLtCjw1g9sJY-221" value="W1" style="strokeWidth=1;fontStyle=0;html=1;" vertex="1" parent="1">
          <mxGeometry x="880" y="459" width="30" height="20" as="geometry" />
        </mxCell>
        <mxCell id="Ga4l1cD2eLtCjw1g9sJY-222" value="W2" style="strokeWidth=1;fontStyle=0;html=1;" vertex="1" parent="1">
          <mxGeometry x="910" y="459" width="30" height="20" as="geometry" />
        </mxCell>
        <mxCell id="Ga4l1cD2eLtCjw1g9sJY-223" value="W3" style="strokeWidth=1;fontStyle=0;html=1;" vertex="1" parent="1">
          <mxGeometry x="940" y="459" width="30" height="20" as="geometry" />
        </mxCell>
        <mxCell id="Ga4l1cD2eLtCjw1g9sJY-224" value="W4" style="strokeWidth=1;fontStyle=0;html=1;" vertex="1" parent="1">
          <mxGeometry x="970" y="459" width="30" height="20" as="geometry" />
        </mxCell>
        <mxCell id="Ga4l1cD2eLtCjw1g9sJY-225" value="W1" style="strokeWidth=1;fontStyle=0;html=1;" vertex="1" parent="1">
          <mxGeometry x="1000" y="459" width="30" height="20" as="geometry" />
        </mxCell>
        <mxCell id="Ga4l1cD2eLtCjw1g9sJY-226" value="W2" style="strokeWidth=1;fontStyle=0;html=1;" vertex="1" parent="1">
          <mxGeometry x="1030" y="459" width="30" height="20" as="geometry" />
        </mxCell>
        <mxCell id="Ga4l1cD2eLtCjw1g9sJY-227" value="W3" style="strokeWidth=1;fontStyle=0;html=1;" vertex="1" parent="1">
          <mxGeometry x="1060" y="459" width="30" height="20" as="geometry" />
        </mxCell>
        <mxCell id="Ga4l1cD2eLtCjw1g9sJY-228" value="W4" style="strokeWidth=1;fontStyle=0;html=1;" vertex="1" parent="1">
          <mxGeometry x="1090" y="459" width="30" height="20" as="geometry" />
        </mxCell>
        <mxCell id="Ga4l1cD2eLtCjw1g9sJY-229" value="W1" style="strokeWidth=1;fontStyle=0;html=1;" vertex="1" parent="1">
          <mxGeometry x="1120" y="459" width="30" height="20" as="geometry" />
        </mxCell>
        <mxCell id="Ga4l1cD2eLtCjw1g9sJY-230" value="W2" style="strokeWidth=1;fontStyle=0;html=1;" vertex="1" parent="1">
          <mxGeometry x="1150" y="459" width="30" height="20" as="geometry" />
        </mxCell>
        <mxCell id="Ga4l1cD2eLtCjw1g9sJY-231" value="W3" style="strokeWidth=1;fontStyle=0;html=1;" vertex="1" parent="1">
          <mxGeometry x="1180" y="459" width="30" height="20" as="geometry" />
        </mxCell>
        <mxCell id="Ga4l1cD2eLtCjw1g9sJY-232" value="W4" style="strokeWidth=1;fontStyle=0;html=1;" vertex="1" parent="1">
          <mxGeometry x="1210" y="459" width="30" height="20" as="geometry" />
        </mxCell>
        <mxCell id="Ga4l1cD2eLtCjw1g9sJY-233" value="W1" style="strokeWidth=1;fontStyle=0;html=1;" vertex="1" parent="1">
          <mxGeometry x="1240" y="459" width="30" height="20" as="geometry" />
        </mxCell>
        <mxCell id="Ga4l1cD2eLtCjw1g9sJY-234" value="W2" style="strokeWidth=1;fontStyle=0;html=1;" vertex="1" parent="1">
          <mxGeometry x="1270" y="459" width="30" height="20" as="geometry" />
        </mxCell>
        <mxCell id="Ga4l1cD2eLtCjw1g9sJY-235" value="W3" style="strokeWidth=1;fontStyle=0;html=1;" vertex="1" parent="1">
          <mxGeometry x="1300" y="459" width="30" height="20" as="geometry" />
        </mxCell>
        <mxCell id="Ga4l1cD2eLtCjw1g9sJY-236" value="W4" style="strokeWidth=1;fontStyle=0;html=1;" vertex="1" parent="1">
          <mxGeometry x="1330" y="459" width="30" height="20" as="geometry" />
        </mxCell>
        <mxCell id="Ga4l1cD2eLtCjw1g9sJY-237" value="W1" style="strokeWidth=1;fontStyle=0;html=1;" vertex="1" parent="1">
          <mxGeometry x="1360" y="459" width="30" height="20" as="geometry" />
        </mxCell>
        <mxCell id="Ga4l1cD2eLtCjw1g9sJY-238" value="W2" style="strokeWidth=1;fontStyle=0;html=1;" vertex="1" parent="1">
          <mxGeometry x="1390" y="459" width="30" height="20" as="geometry" />
        </mxCell>
        <mxCell id="Ga4l1cD2eLtCjw1g9sJY-239" value="W3" style="strokeWidth=1;fontStyle=0;html=1;" vertex="1" parent="1">
          <mxGeometry x="1420" y="459" width="30" height="20" as="geometry" />
        </mxCell>
        <mxCell id="Ga4l1cD2eLtCjw1g9sJY-240" value="W4" style="strokeWidth=1;fontStyle=0;html=1;" vertex="1" parent="1">
          <mxGeometry x="1450" y="459" width="30" height="20" as="geometry" />
        </mxCell>
        <mxCell id="Ga4l1cD2eLtCjw1g9sJY-241" value="W1" style="strokeWidth=1;fontStyle=0;html=1;" vertex="1" parent="1">
          <mxGeometry x="280" y="459" width="30" height="20" as="geometry" />
        </mxCell>
        <mxCell id="Ga4l1cD2eLtCjw1g9sJY-242" value="W2" style="strokeWidth=1;fontStyle=0;html=1;" vertex="1" parent="1">
          <mxGeometry x="310" y="459" width="30" height="20" as="geometry" />
        </mxCell>
        <mxCell id="Ga4l1cD2eLtCjw1g9sJY-243" value="W3" style="strokeWidth=1;fontStyle=0;html=1;" vertex="1" parent="1">
          <mxGeometry x="340" y="459" width="30" height="20" as="geometry" />
        </mxCell>
        <mxCell id="Ga4l1cD2eLtCjw1g9sJY-244" value="W4" style="strokeWidth=1;fontStyle=0;html=1;" vertex="1" parent="1">
          <mxGeometry x="370" y="459" width="30" height="20" as="geometry" />
        </mxCell>
        <mxCell id="Ga4l1cD2eLtCjw1g9sJY-245" value="W1" style="strokeWidth=1;fontStyle=0;html=1;" vertex="1" parent="1">
          <mxGeometry x="160" y="459" width="30" height="20" as="geometry" />
        </mxCell>
        <mxCell id="Ga4l1cD2eLtCjw1g9sJY-246" value="W2" style="strokeWidth=1;fontStyle=0;html=1;" vertex="1" parent="1">
          <mxGeometry x="190" y="459" width="30" height="20" as="geometry" />
        </mxCell>
        <mxCell id="Ga4l1cD2eLtCjw1g9sJY-247" value="W3" style="strokeWidth=1;fontStyle=0;html=1;" vertex="1" parent="1">
          <mxGeometry x="220" y="459" width="30" height="20" as="geometry" />
        </mxCell>
        <mxCell id="Ga4l1cD2eLtCjw1g9sJY-248" value="W4" style="strokeWidth=1;fontStyle=0;html=1;" vertex="1" parent="1">
          <mxGeometry x="250" y="459" width="30" height="20" as="geometry" />
        </mxCell>
        <mxCell id="Ga4l1cD2eLtCjw1g9sJY-249" value="W1" style="strokeWidth=1;fontStyle=0;html=1;" vertex="1" parent="1">
          <mxGeometry x="1480" y="459" width="30" height="20" as="geometry" />
        </mxCell>
        <mxCell id="Ga4l1cD2eLtCjw1g9sJY-250" value="W2" style="strokeWidth=1;fontStyle=0;html=1;" vertex="1" parent="1">
          <mxGeometry x="1510" y="459" width="30" height="20" as="geometry" />
        </mxCell>
        <mxCell id="Ga4l1cD2eLtCjw1g9sJY-251" value="W3" style="strokeWidth=1;fontStyle=0;html=1;" vertex="1" parent="1">
          <mxGeometry x="1540" y="459" width="30" height="20" as="geometry" />
        </mxCell>
        <mxCell id="Ga4l1cD2eLtCjw1g9sJY-252" value="W4" style="strokeWidth=1;fontStyle=0;html=1;" vertex="1" parent="1">
          <mxGeometry x="1570" y="459" width="30" height="20" as="geometry" />
        </mxCell>
        <mxCell id="Ga4l1cD2eLtCjw1g9sJY-253" value="Task 1" style="align=left;strokeColor=#6c8ebf;html=1;fillColor=#dae8fc;" vertex="1" parent="1">
          <mxGeometry x="160" y="479" width="90" height="20" as="geometry" />
        </mxCell>
        <mxCell id="Ga4l1cD2eLtCjw1g9sJY-254" value="Task 2" style="align=left;strokeColor=#6c8ebf;html=1;fillColor=#dae8fc;" vertex="1" parent="1">
          <mxGeometry x="250" y="499" width="60" height="20" as="geometry" />
        </mxCell>
        <mxCell id="Ga4l1cD2eLtCjw1g9sJY-255" value="Task 3" style="align=left;strokeColor=#6c8ebf;html=1;fillColor=#dae8fc;" vertex="1" parent="1">
          <mxGeometry x="310" y="519" width="120" height="20" as="geometry" />
        </mxCell>
        <mxCell id="Ga4l1cD2eLtCjw1g9sJY-256" value="Task 4" style="align=left;strokeColor=#6c8ebf;html=1;fillColor=#dae8fc;" vertex="1" parent="1">
          <mxGeometry x="310" y="539" width="60" height="20" as="geometry" />
        </mxCell>
        <mxCell id="Ga4l1cD2eLtCjw1g9sJY-257" value="Task 5" style="align=left;strokeColor=#6c8ebf;html=1;fillColor=#dae8fc;" vertex="1" parent="1">
          <mxGeometry x="370" y="559" width="60" height="20" as="geometry" />
        </mxCell>
        <mxCell id="Ga4l1cD2eLtCjw1g9sJY-258" value="Task 6" style="align=left;strokeColor=#6c8ebf;html=1;fillColor=#dae8fc;" vertex="1" parent="1">
          <mxGeometry x="430" y="579" width="180" height="20" as="geometry" />
        </mxCell>
        <mxCell id="Ga4l1cD2eLtCjw1g9sJY-259" value="Task 7" style="align=left;strokeColor=#6c8ebf;html=1;fillColor=#dae8fc;" vertex="1" parent="1">
          <mxGeometry x="610" y="599" width="150" height="20" as="geometry" />
        </mxCell>
        <mxCell id="Ga4l1cD2eLtCjw1g9sJY-260" value="Task 8" style="align=left;strokeColor=#6c8ebf;html=1;fillColor=#dae8fc;" vertex="1" parent="1">
          <mxGeometry x="760" y="619" width="60" height="20" as="geometry" />
        </mxCell>
        <mxCell id="Ga4l1cD2eLtCjw1g9sJY-261" value="Task 9" style="align=left;strokeColor=#6c8ebf;html=1;fillColor=#dae8fc;" vertex="1" parent="1">
          <mxGeometry x="760" y="639" width="60" height="20" as="geometry" />
        </mxCell>
        <mxCell id="Ga4l1cD2eLtCjw1g9sJY-262" value="Task 10" style="align=left;strokeColor=#6c8ebf;html=1;fillColor=#dae8fc;" vertex="1" parent="1">
          <mxGeometry x="760" y="659" width="60" height="20" as="geometry" />
        </mxCell>
        <mxCell id="Ga4l1cD2eLtCjw1g9sJY-263" value="Task 11" style="align=left;strokeColor=#6c8ebf;html=1;fillColor=#dae8fc;" vertex="1" parent="1">
          <mxGeometry x="820" y="679" width="150" height="20" as="geometry" />
        </mxCell>
        <mxCell id="Ga4l1cD2eLtCjw1g9sJY-264" value="Task 12" style="align=left;strokeColor=#6c8ebf;html=1;fillColor=#dae8fc;" vertex="1" parent="1">
          <mxGeometry x="970" y="699" width="90" height="20" as="geometry" />
        </mxCell>
        <mxCell id="Ga4l1cD2eLtCjw1g9sJY-265" value="Task 13" style="align=left;strokeColor=#6c8ebf;html=1;fillColor=#dae8fc;" vertex="1" parent="1">
          <mxGeometry x="1060" y="719" width="90" height="20" as="geometry" />
        </mxCell>
        <mxCell id="Ga4l1cD2eLtCjw1g9sJY-266" value="Task 14" style="align=left;strokeColor=#6c8ebf;html=1;fillColor=#dae8fc;" vertex="1" parent="1">
          <mxGeometry x="1060" y="739" width="90" height="20" as="geometry" />
        </mxCell>
        <mxCell id="Ga4l1cD2eLtCjw1g9sJY-267" value="Task 15" style="align=left;strokeColor=#6c8ebf;html=1;fillColor=#dae8fc;" vertex="1" parent="1">
          <mxGeometry x="1150" y="759" width="210" height="20" as="geometry" />
        </mxCell>
        <mxCell id="Ga4l1cD2eLtCjw1g9sJY-268" value="Task 16" style="align=left;strokeColor=#6c8ebf;html=1;fillColor=#dae8fc;" vertex="1" parent="1">
          <mxGeometry x="1360" y="779" width="120" height="20" as="geometry" />
        </mxCell>
      </root>
    </mxGraphModel>
  </diagram>
</mxfile>
